<?xml version="1.0" encoding="utf-8"?>
<!-- Generator: Adobe Illustrator 23.0.6, SVG Export Plug-In . SVG Version: 6.00 Build 0)  -->
<svg version="1.1" id="レイヤー_1" xmlns="http://www.w3.org/2000/svg" xmlns:xlink="http://www.w3.org/1999/xlink" x="0px"
	 y="0px" width="500px" height="500px" viewBox="0 0 500 500" style="enable-background:new 0 0 500 500;" xml:space="preserve" fill="#FFFFFF">
	<path d="M339,282.3c-31,0.6-56.6-24.1-57.2-55.1c-0.6-31,24.1-56.6,55.1-57.2c31-0.6,56.6,24.1,57.2,55.1v0
		C394.7,256.1,370.1,281.7,339,282.3L339,282.3z M163,330c-31,0.6-56.6-24.1-57.2-55.1c-0.6-31,24.1-56.6,55.1-57.2
		c31-0.6,56.6,24.1,57.2,55.1c0.6,31-24,56.6-55,57.2C163,330,163,330,163,330z M335.9,116.4c-46.4,0.9-87.2,30.8-102,74.7
		c-45.7-39.8-115-35-154.8,10.8s-35,115,10.8,154.8c45.7,39.8,115,35,154.8-10.8c9.4-10.8,16.6-23.4,21.2-37
		c45.7,39.8,115.1,35,154.8-10.7c39.8-45.7,35-115.1-10.7-154.8C389.5,125.5,363.1,115.9,335.9,116.4z" />
</svg>
