<?xml version="1.0" encoding="utf-8"?>
<!-- Generator: Adobe Illustrator 21.0.2, SVG Export Plug-In . SVG Version: 6.00 Build 0)  -->
<svg version="1.1" xmlns="http://www.w3.org/2000/svg" xmlns:xlink="http://www.w3.org/1999/xlink" x="0px" y="0px" width="500px"
	 height="500px" viewBox="0 0 500 500" enable-background="new 0 0 500 500" xml:space="preserve" fill="#FFFFFF">
<g id="レイヤー_1" display="none">
	<path display="inline" d="M33.5,452.9h78.7V209.4H33.5V452.9z M466.5,229.7c0-22.3-17.7-40.6-39.4-40.6H302.9l18.7-92.8l0.6-6.5
		c0-8.3-3.3-16-8.7-21.5l-20.9-21.3L163.2,180.8c-7.3,7.3-11.6,17.5-11.6,28.6v203c0,22.3,17.7,40.6,39.4,40.6h177.1
		c16.3,0,30.3-10.1,36.2-24.8l59.4-143.1c1.8-4.7,2.8-9.5,2.8-14.8v-38.8l-0.2-0.2L466.5,229.7z"/>
</g>
<g id="レイヤー_2" display="none">
	<path display="inline" d="M412.2,47.2H87.8c-22.3,0-40.4,18.3-40.4,40.6l-0.2,365.1l81.1-81.1h283.9c22.3,0,40.6-18.3,40.6-40.6
		V87.8C452.8,65.4,434.6,47.2,412.2,47.2z M371.7,290.6H128.3V250h243.4V290.6z M371.7,229.7H128.3v-40.6h243.4V229.7z M371.7,168.9
		H128.3v-40.6h243.4V168.9z"/>
</g>
<g id="レイヤー_3" display="none">
	<path display="inline" fill-rule="evenodd" clip-rule="evenodd" d="M304.5,155.8V48l190.7,188.5L304.5,425V314.6
		C168.3,314.6,72.9,357.7,4.8,452C32.1,317.3,113.8,182.7,304.5,155.8z"/>
</g>
<g id="レイヤー_4" display="none">
	<path display="inline" d="M250,49.6c-111.4,0-201.7,90.3-201.7,201.7C48.3,362.7,138.6,453,250,453c111.4,0,201.7-90.3,201.7-201.7
		C451.7,139.9,361.4,49.6,250,49.6z M270.1,352h-40.2v-40.4h40.2V352z M270.1,271.4h-40.2V150.8h40.2V271.4z"/>
</g>
<g id="レイヤー_5" display="none">
	<g display="inline">
		<path d="M288.3,133.9h94.7V167h-94.7V133.9z M288.3,205.1h94.7v33.1h-94.7V205.1z"/>
		<polygon points="312.4,309.4 350.5,347.5 350.5,347.5 312.4,309.4 		"/>
		<polygon points="257.6,254.5 288.3,285.3 288.3,285.3 257.6,254.5 		"/>
		<rect x="288.3" y="133.9" width="94.7" height="33.1"/>
		<polygon points="257.6,133.2 171.4,133.2 257.6,219.4 		"/>
		<path d="M48.5,50v403h402.9V50H48.5z M85.2,412.3V135.9l36.5,36.5v134.3h134.2l40.8,40.8H119.9v33.1h209.8l31.8,31.8H85.2z
			 M414.8,411.8l-33.9-34v0l-30.4-30.4h0l-38.1-38.1l0,0l-24.1-24.1v0l-30.8-30.8l0,0L136.3,133.2l0,0L93.7,90.6h321.1V411.8z"/>
		<polygon points="383.1,309.4 383.1,276.3 314.5,276.3 347.6,309.4 		"/>
		<rect x="288.3" y="205.1" width="94.7" height="33.1"/>
	</g>
</g>
<g id="レイヤー_6" display="none">
	<path display="inline" fill-rule="evenodd" clip-rule="evenodd" d="M367.7,230.6v-71.5C367.7,104.9,327.3,50,250,50
		c-77.3,0-117.7,54.9-117.7,109.2v71.5H74.1v221.6h351.9V230.6H367.7z M181.8,159.2c0-30.1,21.3-62.6,68.2-62.6s68.2,32.4,68.2,62.6
		v71.5H181.8V159.2z"/>
</g>
<g id="レイヤー_7" display="none">
	<path display="inline" fill-rule="evenodd" clip-rule="evenodd" d="M470.3,453.9c-132.2,0-308.4,0-440.6,0
		c0-74.4,98.6-179.5,220.3-179.5S470.3,379.5,470.3,453.9z M139.8,162.2c0-62,49.3-112.2,110.2-112.2s110.2,50.2,110.2,112.2
		c0,62-49.3,112.2-110.2,112.2S139.8,224.2,139.8,162.2z"/>
</g>
<g id="レイヤー_8" display="none">
	<g display="inline">
		<defs>
			<path id="SVGID_1_" d="M250,50C139,50,48.9,140.1,48.9,251.1S139,452.2,250,452.2s201.1-90.1,201.1-201.1S361,50,250,50
				 M250,411.9c-88.9,0-160.9-72-160.9-160.9c0-37.2,12.7-71.4,34-98.5L348.5,378C321.4,399.3,287.2,411.9,250,411.9 M376.9,349.6
				L151.5,124.2c27.1-21.3,61.3-34,98.5-34c88.9,0,160.9,72,160.9,160.9C410.9,288.3,398.2,322.5,376.9,349.6"/>
		</defs>
		<use xlink:href="#SVGID_1_"  overflow="visible" fill-rule="evenodd" clip-rule="evenodd"/>
		<clipPath id="SVGID_2_">
			<use xlink:href="#SVGID_1_"  overflow="visible"/>
		</clipPath>
		<g clip-path="url(#SVGID_2_)">
			<defs>
				<rect id="SVGID_3_" x="-163.1" y="-2882.1" width="2339.8" height="4394.5"/>
			</defs>
			<use xlink:href="#SVGID_3_"  overflow="visible"/>
			<clipPath id="SVGID_4_">
				<use xlink:href="#SVGID_3_"  overflow="visible"/>
			</clipPath>
			<rect x="12.4" y="13.4" clip-path="url(#SVGID_4_)" width="475.3" height="475.3"/>
		</g>
	</g>
</g>
<g id="レイヤー_9" display="none">
	<g display="inline">
		<rect x="287" y="276" width="95" height="31"/>
		<path d="M48,50v400h403V50H48z M414,410H85V90h329V410z"/>
		<rect x="287" y="133" width="95" height="32"/>
		<rect x="287" y="203" width="95" height="34"/>
		<path d="M257,133H123v172h134V133z M139.2,293c0-24,18.1-56.6,52-56.6c-17,0-30.7-15.9-30.7-35.4s13.7-35.4,30.7-35.4
			c17,0,30.7,15.8,30.7,35.3s-13.7,35.4-30.7,35.4c33.9,0,52,32.6,52,56.6C206.2,293,176,293,139.2,293z"/>
		<rect x="121" y="346" width="259" height="32"/>
	</g>
</g>
<g id="レイヤー_10" display="none">
	<path display="inline" d="M416,333.2c-26-22-44.6-80.6-44.6-149.4c0-52.1-42.4-97.6-89.9-113.8c-3.2-18.8-19.7-21.2-31.5-21.2
		c-11.6,0.7-28.3,2.4-31.5,21.2c-47.5,16.2-89.9,61.7-89.9,113.8c0,68.8-18.6,127.3-44.6,149.4c-14.5,12.3-22.9,30.2-22.9,49
		c0,21.9,19.6,37,42,37h115.4c0,21.9,15.5,31.8,31.5,31.8c15.8,0,31.5-9.8,31.5-31.8h115.4c22.4,0,42-15.1,42-37
		C438.9,363.5,430.5,345.6,416,333.2z M92.6,387.6c0-7.3,4.9-27,10.5-31.7c36.1-30.6,52.5-89.3,52.5-169.3
		c0-43.8,49.8-95.3,94.4-95.3c44.6,0,94.4,51.5,94.4,95.3c0,80,16.3,138.7,52.5,169.3c5.6,4.8,10.5,24.4,10.5,31.7H92.6z"/>
</g>
<g id="レイヤー_11" display="none">
	<g display="inline">
		<path fill-rule="evenodd" clip-rule="evenodd" d="M341.8,313.3c-13.5-5.6-13.5-5.8-27.7-9.6c-3.7-1-6.2-1.6-8.4-2.8
			c-1.7-1-3.3-2.4-5.1-4.7c-3.8-5-7-10.5-8.6-16.6c0,0-3.2-0.9-8.4-1.9c0-2.3,0.3-5.3,1-8.4c0.3-0.5,0.5-1,0.8-1.5
			c1.8-1.4,3.2-2.8,3.2-2.8c4.1-2.5,7.9-28.1,7.9-28.1l-0.1,0.2c0.1-0.4,0.2-0.7,0.3-1.1c3.2-0.9,6.5-2,6.5-2
			c6.5-1.6,8.2-22.6,9.1-35.2c0.5-6.5-2.2-8.1-4.8-8.1c1.9-9.1,3.2-18.3,3-27.2l0,0c0.9-10-2.8-25.4-2.8-25.4
			c-5.3-18.9-18.7-17.2-18.7-17.2c-16.9-11.7-21.8-17.7-59.1-9.1c-28,6.4-35.8,27-37.9,36.9c-3.3,13-1.8,27.7,1.1,41.9
			c-2.7,0-5.3,1.5-4.8,8.1c1,12.7,2.6,33.7,9.1,35.2c0,0,3.9,1.4,7.3,2.2c0,0.1,0.1,0.1,0.1,0.2c0.1,0.6,3.8,25.6,7.9,28
			c0,0,1.8,2.1,4.6,3.5c0.9,3.4,1.2,6.9,1.3,9.5c-6.2,1.2-10.1,2.3-10.1,2.3c-1.6,6.1-4.8,11.7-8.6,16.6c-1.8,2.3-3.3,3.7-5.1,4.7
			c-2.2,1.3-4.8,1.9-8.4,2.8c-14.2,3.8-14.2,3.9-27.7,9.5c-16.7,6.9-29.6,79.1-13.2,79.1h104.8h104.2
			C370.9,392.3,358.5,320.3,341.8,313.3"/>
		<g>
			<path d="M155.3,304.2l2-0.8c6.1-2.5,9.3-3.9,12.9-5.1c-2.7-3.6-5-7.6-6.1-12c0,0-2.4-0.7-6.3-1.4c0-1.7,0.2-4,0.7-6.3
				c0.2-0.4,0.4-0.7,0.6-1.1c1.4-1,2.4-2.1,2.4-2.1c3.1-1.9,5.9-21,5.9-21l-0.1,0.1c0.1-0.3,0.1-0.5,0.2-0.8
				c2.4-0.6,4.8-1.5,4.8-1.5c4.9-1.2,6.1-16.8,6.8-26.3c0.4-4.9-1.6-6-3.6-6c1.4-6.8,2.4-13.7,2.3-20.3l0,0
				c0.7-7.5-2.1-18.9-2.1-18.9c-3.9-14.1-13.9-12.8-13.9-12.8c-12.7-8.7-16.3-13.2-44.1-6.8c-20.9,4.8-26.7,20.2-28.3,27.5
				c-2.5,9.7-1.3,20.6,0.8,31.3c-2,0-4,1.1-3.6,6c0.7,9.5,1.9,25.1,6.8,26.3c0,0,2.9,1,5.4,1.7c0,0.1,0,0.1,0.1,0.2
				c0.1,0.4,2.8,19.1,5.9,20.9c0,0,1.4,1.6,3.4,2.6c0.7,2.6,0.9,5.1,1,7.1c-4.6,0.9-7.5,1.7-7.5,1.7c-1.2,4.5-3.6,8.7-6.4,12.4
				c-1.3,1.7-2.5,2.8-3.8,3.5c-1.7,1-3.6,1.4-6.3,2.1c-10.6,2.8-10.6,2.9-20.7,7.1c-12.5,5.2-22.1,59-9.9,59.1h74.6
				C129.9,346.6,139.3,310.8,155.3,304.2z"/>
			<path d="M435.9,311.5c-10.1-4.2-10.1-4.4-20.7-7.2c-2.7-0.7-4.6-1.2-6.3-2.1c-1.3-0.7-2.5-1.8-3.8-3.5c-2.8-3.7-5.2-7.9-6.4-12.4
				c0,0-2.4-0.7-6.3-1.4c0-1.7,0.2-4,0.7-6.3c0.2-0.4,0.4-0.7,0.6-1.1c1.4-1,2.4-2.1,2.4-2.1c3.1-1.9,5.9-21,5.9-21l-0.1,0.1
				c0.1-0.3,0.1-0.5,0.2-0.8c2.4-0.6,4.8-1.5,4.8-1.5c4.9-1.2,6.1-16.8,6.8-26.3c0.4-4.9-1.6-6-3.6-6c1.4-6.8,2.4-13.7,2.3-20.3l0,0
				c0.7-7.5-2.1-18.9-2.1-18.9c-3.9-14.1-13.9-12.8-13.9-12.8c-12.7-8.7-16.3-13.2-44.1-6.8c-20.9,4.8-26.7,20.2-28.3,27.5
				c-2.5,9.7-1.3,20.6,0.8,31.3c-2,0-4,1.1-3.6,6c0.7,9.5,1.9,25.1,6.8,26.3c0,0,2.9,1,5.4,1.7c0,0.1,0,0.1,0.1,0.2
				c0.1,0.4,2.8,19.1,5.9,20.9c0,0,1.4,1.6,3.4,2.6c0.7,2.6,0.9,5.1,1,7.1c-4.6,0.9-7.5,1.7-7.5,1.7c-1.2,4.4-3.4,8.4-6.1,12
				c3.3,1.1,6.4,2.4,11.8,4.6l3.3,1.4c15.9,6.6,25,42.4,25.6,66.2h74.5C457.6,370.4,448.3,316.6,435.9,311.5z"/>
		</g>
	</g>
</g>
<g id="レイヤー_12" display="none">
	<path display="inline" fill-rule="evenodd" clip-rule="evenodd" d="M378.9,74.1h-25.8v88c0,48.6-40.4,88-90.3,88
		c49.9,0,90.3,39.4,90.3,88v88h25.8c7.1,0,12.9,5.6,12.9,12.6c0,6.9-5.8,12.6-12.9,12.6h-25.8h-25.8H172.6h-25.8h-25.8
		c-7.1,0-12.9-5.6-12.9-12.6c0-6.9,5.8-12.6,12.9-12.6h25.8v-88c0-48.6,40.4-88,90.3-88c-49.9,0-90.3-39.4-90.3-88v-88h-25.8
		c-7.1,0-12.9-5.6-12.9-12.6c0-6.9,5.8-12.6,12.9-12.6h25.8h25.8h154.7h25.8h25.8c7.1,0,12.9,5.6,12.9,12.6
		C391.8,68.4,386.1,74.1,378.9,74.1z M172.6,338c0,22,0,40.7,0,61.5v26.5h154.7v-26.5c0-19.9,0-41.3,0-61.5
		c0-34.7-30.3-62.8-67.7-62.8h-19.3C202.9,275.1,172.6,303.3,172.6,338z M327.4,100.5V74.1H172.6v26.5c0,20.8,0,39.5,0,61.5
		c0,34.7,30.3,62.8,67.7,62.8h19.3c37.4,0,67.7-28.1,67.7-62.8C327.4,141.8,327.4,120.4,327.4,100.5z"/>
</g>
<g id="レイヤー_13" display="none">
	<path display="inline" fill-rule="evenodd" clip-rule="evenodd" d="M250,452.2c-111.6,0-202-90.5-202-202.2
		c0-111.6,90.4-202.2,202-202.2c111.6,0,202,90.5,202,202.2C452,361.7,361.6,452.2,250,452.2z M250,80.3
		c-93.6,0-169.6,76-169.6,169.7c0,93.7,75.9,169.7,169.6,169.7c93.7,0,169.6-76,169.6-169.7C419.6,156.3,343.7,80.3,250,80.3z
		 M226.5,265.6l-1.9-14.5l7.4-138.1h21.5l7.2,136.2l85.4,91.6l-16.3,16.7L226.5,265.6z"/>
</g>
<g id="レイヤー_14" display="none">
	<path display="inline" fill-rule="evenodd" clip-rule="evenodd" d="M429.4,285.1L279,435c-22.1,22.1-57.5,22.6-79,1.2L63.8,300.3
		c-21.5-21.4-21-56.7,1.2-78.8L225.3,61.6l0.1,0.1c6.8-7.1,10.4-10.9,20.6-11l180.6-2.6c14.2-0.2,25.6,11.1,25.4,25.4l-2.7,180.1
		C449.1,267.7,441,273.5,429.4,285.1z M416.3,261.5c7.1-7,7.3-13.4,7.4-20.5L426,86.6c0.1-7.1-5.6-12.8-12.7-12.7l-154.8,2.3
		c-7.1,0.1-11.9,3.1-18.4,9.6L84.4,240.9c-11.1,11-11.6,29.4-0.8,40.1l137,136.7c10.7,10.7,28.1,11,39.1,0L416.3,261.5z
		 M282.2,218.3c-21.5-21.4-21-56.7,1.2-78.8c22.1-22.1,57.5-22.6,79-1.2c21.5,21.4,21,56.7-1.2,78.8
		C339.1,239.3,303.7,239.8,282.2,218.3z M342.4,158.4c-10.7-10.7-28.4-10.5-39.5,0.6c-11.1,11-11.3,28.7-0.6,39.4
		c10.8,10.7,28.4,10.5,39.5-0.6C352.8,186.7,353.1,169.1,342.4,158.4z"/>
</g>
<g id="レイヤー_15" display="none">
	<path display="inline" fill-rule="evenodd" clip-rule="evenodd" d="M452,233.1H266.9V48h-33.8v185.1H48v33.8h185.1V452h33.8V266.9
		H452V233.1z"/>
</g>
<g id="レイヤー_16" display="none">
	<g display="inline">
		<g>
			<path fill-rule="evenodd" clip-rule="evenodd" d="M233,235h72.7v-24.3H233V235z M305.8,158.3H233v24.3h72.7V158.3z M233,287.3
				h52.8l23.1-24.3H233V287.3z M77.1,363V126.5h253.1l-0.1,114.1l28.2-29.7V96.7H48.9v296.3h176.5l-0.1-29.9H77.1z M447.7,213.6
				l-27.4-28.9c-4.6-4.8-12-4.8-16.5,0l-21.4,22.6l43.9,46.3l21.4-22.6C452.2,226.2,452.2,218.4,447.7,213.6z M209.4,285.4V157.8
				H105.1v127.5H209.4z M157.5,235.4c-11.8,0-21.4-10.5-21.4-23.5c0-13,9.6-23.5,21.4-23.5c11.8,0,21.4,10.5,21.4,23.5
				C178.9,224.9,169.4,235.4,157.5,235.4c23.6,0,36.2,22,36.2,37.6h-72.4C121.3,257.4,133.9,235.4,157.5,235.4z M240.1,357v46.3
				h43.9l129.6-136.5l-43.9-46.3L240.1,357z M103.7,315.4v24.3h132.4l23.1-24.3H103.7z"/>
		</g>
	</g>
</g>
<g id="レイヤー_17" display="none">
	<path display="inline" fill-rule="evenodd" clip-rule="evenodd" d="M408.5,402.5H91.5c-12.4,0-22.6-10.2-22.6-22.6V120.1
		c0-12.4,10.2-22.6,22.6-22.6h317.1c12.5,0,22.6,10.2,22.6,22.6v259.8C431.2,392.3,421,402.5,408.5,402.5z M91.5,120.1v161.8
		l82.8-80.3c2.3-2.1,5.4-3.2,8.5-3c3.1,0.2,6,1.7,8,4.1l93.7,92.5l42.7-37.1c4.5-3.4,10.8-3,14.8,1l66.5,67.9V120.1H91.5z
		 M329.3,210.5c-12.5,0-22.6-10.1-22.6-22.5c0-12.4,10.1-22.5,22.6-22.5c12.5,0,22.6,10.1,22.6,22.5
		C351.9,200.4,341.7,210.5,329.3,210.5z"/>
</g>
<g id="レイヤー_18" display="none">
	<path display="inline" fill-rule="evenodd" clip-rule="evenodd" d="M440.4,157.2L426,171.7L328.3,74l14.5-14.4
		c15.4-15.4,40.4-15.4,55.8,0l41.9,41.9C455.9,116.8,455.9,141.8,440.4,157.2z M199.1,398.6l-97.7-97.7l213-213l97.7,97.7
		L199.1,398.6z M183,410.5L61.5,451c-10.3,3.4-15.9-2.1-12.5-12.5L89.5,317L183,410.5z"/>
</g>
<g id="レイヤー_19" display="none">
	<path display="inline" fill-rule="evenodd" clip-rule="evenodd" d="M447.8,421.6L343,316.8c22.7-28.4,36.4-64.5,36.4-103.7
		c0-91.8-74.4-166.2-166.3-166.2c-91.8,0-166.3,74.4-166.3,166.2c0,91.8,74.4,166.2,166.3,166.2c39.3,0,75.3-13.6,103.8-36.3
		l104.8,104.8c3.6,3.6,8.3,5.4,13.1,5.4c4.7,0,9.5-1.8,13.1-5.4C455,440.5,455,428.8,447.8,421.6z M213.1,354.6
		c-71.4,0-141.6-70.2-141.6-141.6c0-71.4,70.2-141.6,141.6-141.6c71.4,0,141.6,70.2,141.6,141.6
		C354.7,284.5,284.5,354.6,213.1,354.6z"/>
</g>
<g id="レイヤー_20" display="none">
	<path display="inline" fill-rule="evenodd" clip-rule="evenodd" d="M250,452.2c-111.6,0-202.2-90.5-202.2-202.2
		c0-111.6,90.5-202.2,202.2-202.2c111.7,0,202.2,90.5,202.2,202.2C452.2,361.7,361.7,452.2,250,452.2z M250,73.1
		c-97.5,0-176.9,79.4-176.9,176.9c0,97.5,79.3,177.3,176.9,177.3S426.9,347.5,426.9,250C426.9,152.5,347.5,73.1,250,73.1z
		 M338.4,262.6h-75.8v75.8c0,7-5.7,12.6-12.6,12.6s-12.6-5.7-12.6-12.6v-75.8h-75.8c-7,0-12.6-5.7-12.6-12.6s5.7-12.6,12.6-12.6
		h75.8v-75.8c0-7,5.7-12.6,12.6-12.6s12.6,5.7,12.6,12.6v75.8h75.8c7,0,12.6,5.7,12.6,12.6S345.4,262.6,338.4,262.6z"/>
</g>
<g id="レイヤー_21" display="none">
	<path display="inline" fill-rule="evenodd" clip-rule="evenodd" d="M361.8,453.5H138.2c-24.7,0-44.7-22.8-44.7-50.9V148.3
		c0-28.1,20-50.9,44.7-50.9h33.5V72h30.1c9.7-15.1,27.5-25.4,48.1-25.4s38.5,10.3,48.2,25.4h30.1v25.4h33.5
		c24.7,0,44.7,22.8,44.7,50.9v254.4C406.5,430.7,386.5,453.5,361.8,453.5z M305.9,97.4h-24.8c0-14-13.9-25.4-31.1-25.4
		s-31.1,11.4-31.1,25.4h-24.8v50.9h111.8V97.4z M384.2,148.3c0-14-10-25.4-22.4-25.4h-33.5v50.9H171.7v-50.9h-33.5
		c-12.3,0-22.4,11.4-22.4,25.4v254.4c0,14,10,25.4,22.4,25.4h223.6c12.3,0,22.4-11.4,22.4-25.4V148.3z M328.3,377.2H171.7
		c-6.2,0-11.2-5.7-11.2-12.7c0-7,5-12.7,11.2-12.7h156.5c6.2,0,11.2,5.7,11.2,12.7C339.4,371.5,334.4,377.2,328.3,377.2z
		 M328.3,313.6H171.7c-6.2,0-11.2-5.7-11.2-12.7c0-7,5-12.7,11.2-12.7h156.5c6.2,0,11.2,5.7,11.2,12.7
		C339.4,307.9,334.4,313.6,328.3,313.6z M328.3,250H171.7c-6.2,0-11.2-5.7-11.2-12.7c0-7,5-12.7,11.2-12.7h156.5
		c6.2,0,11.2,5.7,11.2,12.7C339.4,244.3,334.4,250,328.3,250z"/>
</g>
<g id="レイヤー_22" display="none">
	<path display="inline" d="M445.8,227.6c-0.6-5.7-7.1-10-12.7-10c-18.1,0-34.1-10.9-40.8-27.7c-6.9-17.2-2.4-37.3,11-50
		c4.2-4,4.8-10.6,1.2-15.2c-9.2-12-19.7-22.9-31.2-32.3c-4.5-3.7-11.1-3.2-15,1.2c-11.7,13.3-32.8,18.3-49.1,11.3
		c-17-7.3-27.7-25-26.6-43.9c0.3-5.9-3.9-11.1-9.7-11.8c-14.7-1.7-29.6-1.8-44.3-0.1c-5.7,0.6-9.9,5.7-9.8,11.6
		c0.6,18.7-10.2,36.1-27,43.1c-16.1,6.7-37.1,1.8-48.8-11.4c-3.9-4.4-10.4-4.9-14.9-1.3c-11.8,9.5-22.6,20.4-31.9,32.3
		c-3.6,4.6-3.1,11.4,1.2,15.4c13.7,12.7,18.1,33,11,50.4c-6.8,16.6-23.6,27.3-42.9,27.3c-6.2-0.2-10.7,4.1-11.4,9.9
		c-1.7,15.2-1.8,30.7-0.1,46c0.6,5.7,7.3,9.9,12.9,9.9c17.2-0.4,33.6,10.5,40.5,27.7c6.9,17.2,2.5,37.3-11,50
		c-4.2,4-4.8,10.6-1.2,15.2c9.2,12,19.7,22.9,31.2,32.4c4.5,3.7,11.1,3.2,15-1.2c11.8-13.4,32.9-18.3,49.1-11.3
		c17,7.3,27.7,24.9,26.7,43.9c-0.3,5.9,3.9,11.1,9.7,11.8c7.5,0.9,15.1,1.3,22.7,1.3c7.2,0,14.4-0.4,21.6-1.2
		c5.7-0.7,9.9-5.7,9.8-11.6c-0.7-18.7,10.2-36.1,27-43.1c16.2-6.8,37.1-1.8,48.8,11.4c3.9,4.3,10.3,4.9,14.9,1.3
		c11.8-9.5,22.5-20.4,31.9-32.3c3.6-4.6,3.1-11.4-1.2-15.4c-13.7-12.7-18.2-33-11-50.4c6.7-16.4,22.9-27.4,40.3-27.4l2.4,0.1
		c5.6,0.5,10.8-4,11.5-9.9C447.5,258.3,447.5,242.9,445.8,227.6z M250.3,317.9c-36.2,0-65.7-30.2-65.7-67.4
		c0-37.2,29.5-67.4,65.7-67.4c36.2,0,65.7,30.2,65.7,67.4C316,287.6,286.6,317.9,250.3,317.9z"/>
</g>
<g id="レイヤー_23" display="none">
	<path display="inline" d="M247.4,47.9C138.6,49.4,51.5,141.1,53,252.7c1.5,111.6,90.9,200.9,199.7,199.4
		c108.8-1.5,195.8-93.2,194.4-204.9C445.6,135.7,356.2,46.4,247.4,47.9z M246.8,373.1l-1.1,0c-16.8-0.5-28.6-13.2-28.1-30.1
		c0.5-16.6,12.6-28.7,28.8-28.7l1,0c17.2,0.5,28.9,13.1,28.4,30.5C275.3,361.4,263.4,373.1,246.8,373.1z M317.3,229.5
		c-3.9,5.7-12.6,12.9-23.5,21.6l-12,8.5c-6.6,5.3-10.6,10.2-12.1,15.1c-1.2,3.8-1.8,4.9-1.9,12.7l0,2h-45.9l0.1-4
		c0.6-16.4,1-26,7.6-34c10.4-12.5,33.3-27.6,34.3-28.3c3.3-2.5,6.1-5.4,8.1-8.5c4.8-6.8,7-12.2,7-17.5c0-7.3-2.1-14.1-6.3-20.1
		c-4-5.8-11.7-8.8-22.7-8.8c-11,0-18.5,3.6-23,10.9c-4.6,7.5-7,15.4-7,23.5v2h-47.3l0.1-2.1c1.2-29.7,11.6-51.2,30.7-63.7
		c12-8,27-12,44.5-12c22.9,0,42.2,5.7,57.5,17c15.4,11.4,23.2,28.5,23.2,50.8C328.7,207.2,324.8,218.9,317.3,229.5z"/>
</g>
<g id="レイヤー_24" display="none">
	<g display="inline">
		<g>
			<polygon fill-rule="evenodd" clip-rule="evenodd" points="172.7,234.6 172.7,141.8 49.2,249.9 172.7,358.1 172.7,265.5
				419.9,265.5 419.9,358.2 450.8,358.2 450.8,234.6 			"/>
		</g>
	</g>
</g>
<g id="レイヤー_25" display="none">
	<g display="inline">
		<g>
			<path d="M69.8,240h37.2v-17.3H69.8V192h40.7v-17.3H48.9v115.8h61.9v-17.3h-41V240z M144.7,290.5h20v-81h-20V290.5z M144.7,194.7
				h20v-20.1h-20V194.7z M250.2,220.5h-0.3c-5.5-9.3-13.5-12.9-23.6-12.9c-23,0-32.6,22.5-32.6,42c0,21.7,8.7,40.9,31.4,40.9
				c11.2,0,20.2-6,23.9-12.9h0.3c0,14-1,31.4-23.2,31.4c-6.3,0-16.3-3.6-22.4-7.1l-1.6,17.9c9.6,4.2,18.7,5.5,26.6,5.5
				c32.3,0,40.7-20.8,40.7-42.8v-73.1h-19.1V220.5z M231.7,274.1c-11.5,0-17-13.5-17-24.5c0-12.4,4.3-25.6,17.9-25.6
				c11.7,0,16.7,11.3,16.7,25.2C249.3,262.7,244.3,274.1,231.7,274.1z M346.8,207.6c-10.5,0-19.1,5-24.2,12.9h-0.3v-45.9h-20v115.9
				h20v-39.6c0-10.4,3.1-26.9,17.6-26.9c12.9,0,13,13.4,13,23.3v43.2h20v-51.1C373,221.2,365.1,207.6,346.8,207.6z M450.5,273.8
				c-2.1,1.4-5.5,2.2-9.1,2.2c-7.6,0-9.4-6.4-9.4-13.4v-37.7h17.8v-15.4h-17.8v-23l-20,6.8v16.2h-14.8v15.4h14.8v41.2
				c0,16,8.7,26.3,24.4,26.3c6,0,10.6-0.6,14.8-1.9L450.5,273.8z"/>
		</g>
	</g>
</g>
<g id="レイヤー_26" display="none">
	<path display="inline" fill-rule="evenodd" clip-rule="evenodd" d="M95,109h38.7v20.2H95V109z M250,196.4c39.2,0,71,33.1,71,74
		s-31.8,74-71,74c-39.2,0-71-33.1-71-74S210.8,196.4,250,196.4z M363,176.2c-5.3,0-9.7,4.5-9.7,10.1c0,5.6,4.3,10.1,9.7,10.1
		c5.4,0,9.7-4.5,9.7-10.1C372.7,180.8,368.3,176.2,363,176.2z M250,364.6c49.9,0,90.4-42.2,90.4-94.2s-40.5-94.2-90.4-94.2
		c-49.9,0-90.4,42.2-90.4,94.2S200.1,364.6,250,364.6z M75.7,404.9c-14.3,0-25.8-12-25.8-26.9V169.5c0-14.9,11.6-26.9,25.8-26.9
		h64.6c10.5-0.9,21.5-9.1,34.7-32.1c11.2-19.5,29.8-15,29.8-15h90.3c0,0,22.6-1.6,30.6,15.2c15.4,32.3,34,31.9,34,31.9h64.6
		c14.3,0,25.8,12,25.8,26.9V378c0,14.9-11.6,26.9-25.8,26.9H75.7z"/>
</g>
<g id="レイヤー_27" display="none">
	<g display="inline">
		<g>
			<path d="M187,47.8h-82.5v249.8H47.9l98.3,97.9l98.2-97.9H187V47.8z M353.9,130.7l-98.2,97.9h56.7v223.5h82.5V228.6h57.3
				L353.9,130.7z"/>
		</g>
	</g>
</g>
<g id="レイヤー_11のコピー" display="none">
	<g display="inline">
		<path d="M398.4,463.2h-297c-4.9,0-16.6-2.1-20.4-21.2c-3.5-17.8,0.4-43.9,5.3-62.4c5.1-19.3,14.4-43.5,29.6-49.9l2.9-1.2
			c16.7-7,18.1-7.5,37.9-12.8l1.7-0.4c3.5-0.9,6.1-1.6,7.6-2.5c0.8-0.5,2-1.3,3.9-3.8c5.2-6.8,8.6-13.4,10.3-19.8
			c1-3.8,4-6.7,7.7-7.8c0.1,0,1.3-0.4,3.5-0.9c-0.7-0.6-1.3-1.2-1.8-1.7c-3.4-2.6-8.8-9.6-13.8-39.9c-1.7-0.6-3.1-1-3.8-1.3
			c-15.3-4.3-18.2-27.5-20.7-59.7c-0.6-7.7,1.1-13.8,5-18c0.2-0.2,0.3-0.3,0.5-0.5c-3.9-22.5-3.9-40.4,0-55.9
			c3.2-14.8,15.8-50,62.1-60.6c51.9-11.9,64.5-5.2,87.9,11.3c0.6,0.4,1.3,0.9,1.9,1.4c10.7,0.8,26.9,8,33.7,32.4
			c0,0.1,0.1,0.3,0.1,0.4c0.6,2.4,5.6,24,4.3,39.6c0,0,0,0.1,0,0.1c0.1,9.4-0.9,19.8-2.9,31.4c0.2,0.2,0.3,0.3,0.5,0.5
			c3.9,4.2,5.6,10.2,5,18c-2.5,32.2-5.5,55.4-20.7,59.7c-0.5,0.2-1.5,0.5-2.7,0.9c-0.6,3.6-1.5,8.6-2.6,13.7
			c-3.8,17.7-7.2,24.1-11.3,27.3c-0.4,0.4-0.8,0.8-1.4,1.3c1.2,0.3,1.9,0.5,2,0.5c3.8,1,6.7,4,7.8,7.8c1.7,6.3,5.2,13,10.3,19.8
			c1.9,2.5,3.1,3.4,3.9,3.8c1.6,0.9,4,1.5,7.7,2.5l1.7,0.4c19.1,5.1,21,5.9,36,12.2l4.7,2l0,0c15.2,6.3,24.3,30.5,29.3,49.6
			c4.8,18.3,8.6,44.3,5,62.2C415.1,461,403.3,463.1,398.4,463.2z M103.5,441.2h292.8c2.6-5.9,3.6-27.5-3.4-55.2
			c-6.2-24.4-13.9-34.7-16.7-35.8l-4.7-2c-14.4-6-15.6-6.5-33.2-11.2l-1.6-0.4c-4.8-1.3-8.9-2.3-13-4.7c-3.8-2.2-7.1-5.2-10.5-9.6
			c-5.3-7-9.3-14-12-21c-1.6-0.4-3.5-0.8-5.6-1.2c-5.2-1.1-8.9-5.6-8.8-10.9c0-3.3,0.4-8.4,1.7-14.3c0.2-1.1,0.7-2.2,1.2-3.1
			c0.2-0.3,0.4-0.7,0.6-1l0.5-0.9c0.7-1.3,1.7-2.5,2.9-3.4c1.8-1.3,3.1-2.8,3.1-2.8c0.2-0.2,0.4-0.4,0.6-0.6
			c2-3.9,5.4-17.9,7.5-31.6c0-0.9,0.1-1.7,0.3-2.6c0.1-0.5,0.2-0.9,0.3-1.4c0.9-3.9,3.9-7,7.8-8.1c3-0.8,6.1-1.8,7.5-2.3
			c3.9-6.5,5.9-32.1,6.6-40.7c0-0.2,0-0.3,0-0.4c-1.7-0.7-3.2-1.8-4.4-3.2c-2.1-2.6-3-5.9-2.3-9.2c2.9-14.1,4.2-26,4.1-36.3
			c0-0.7,0-1.5,0.2-2.2c0.6-10.1-2.4-25.7-3.8-31.3c-4.4-15.5-12.6-16.2-14.6-16.2c-2.8,0.5-5.1-0.2-7.5-1.9
			c-1.7-1.2-3.3-2.3-4.9-3.4c-9.8-6.9-15.7-11-24.4-12.6c-9.8-1.8-24-0.3-46,4.7c-33,7.6-42.7,30.8-45.6,44c0,0.1-0.1,0.3-0.1,0.4
			c-3.6,14.1-3,31.5,1.7,54.6c0.7,3.3-0.2,6.6-2.3,9.2c-1.2,1.5-2.7,2.6-4.4,3.2c0,0.1,0,0.2,0,0.4c0.7,8.7,2.7,34.3,6.6,40.8
			c1.7,0.6,5.3,1.8,8.5,2.6c3.5,0.9,6.4,3.5,7.6,7c0.1,0.1,0.1,0.3,0.1,0.4c0.2,0.6,0.4,1.3,0.5,2c2.1,14.1,5.6,29.1,7.7,33.2
			c0.3,0.3,0.7,0.6,1,1c0.4,0.4,1.6,1.5,2.8,2.1c2.9,1.4,5.1,3.9,5.9,7c1.7,6.2,2.2,12.2,2.2,16.2c0.1,5.3-3.6,10-8.9,11
			c-3.1,0.6-5.7,1.2-7.8,1.6c-2.7,7-6.7,14.1-12,21c-3.3,4.4-6.6,7.4-10.5,9.6c-4.1,2.4-8.2,3.4-13,4.7l-1.6,0.4
			c-18.4,4.9-19,5.2-35.1,11.9l-2.9,1.2c-2.8,1.2-10.7,11.5-17.1,36.1C100.2,413.7,101,435.2,103.5,441.2z"/>
	</g>
</g>
<g id="レイヤー_11のコピー_4" display="none">
	<g display="inline">
		<path d="M378.4,463.2h-297c-4.9,0-16.6-2.1-20.4-21.2c-3.5-17.8,0.4-43.9,5.3-62.4c5.1-19.3,14.4-43.5,29.6-49.9l2.9-1.2
			c16.7-7,18.1-7.5,37.9-12.8l1.7-0.4c3.5-0.9,6.1-1.6,7.6-2.5c0.8-0.5,2-1.3,3.9-3.8c5.2-6.8,8.6-13.4,10.3-19.8
			c1-3.8,4-6.7,7.7-7.8c0.1,0,1.3-0.4,3.5-0.9c-0.7-0.6-1.3-1.2-1.8-1.7c-3.4-2.6-8.8-9.6-13.8-39.9c-1.7-0.6-3.1-1-3.8-1.3
			c-15.3-4.3-18.2-27.5-20.7-59.7c-0.6-7.7,1.1-13.8,5-18c0.2-0.2,0.3-0.3,0.5-0.5c-3.9-22.5-3.9-40.4,0-55.9
			c3.2-14.8,15.8-50,62.1-60.6c51.9-11.9,64.5-5.2,87.9,11.3c0.6,0.4,1.3,0.9,1.9,1.4c10.7,0.8,26.9,8,33.7,32.4
			c0,0.1,0.1,0.3,0.1,0.4c0.6,2.4,5.6,24,4.3,39.6c0,0,0,0.1,0,0.1c0.1,9.4-0.9,19.8-2.9,31.4c0.2,0.2,0.3,0.3,0.5,0.5
			c3.9,4.2,5.6,10.2,5,18c-2.5,32.2-5.5,55.4-20.7,59.7c-0.5,0.2-1.5,0.5-2.7,0.9c-0.6,3.6-1.5,8.6-2.6,13.7
			c-3.8,17.7-7.2,24.1-11.3,27.3c-0.4,0.4-0.8,0.8-1.4,1.3c1.2,0.3,1.9,0.5,2,0.5c3.8,1,6.7,4,7.8,7.8c1.7,6.3,5.2,13,10.3,19.8
			c1.9,2.5,3.1,3.4,3.9,3.8c1.6,0.9,4,1.5,7.7,2.5l1.7,0.4c19.1,5.1,21,5.9,36,12.2l4.7,2l0,0c15.2,6.3,24.3,30.5,29.3,49.6
			c4.8,18.3,8.6,44.3,5,62.2C395.1,461,383.3,463.1,378.4,463.2z M83.5,441.2h292.8c2.6-5.9,3.6-27.5-3.4-55.2
			c-6.2-24.4-13.9-34.7-16.7-35.8l-4.7-2c-14.4-6-15.6-6.5-33.2-11.2l-1.6-0.4c-4.8-1.3-8.9-2.3-13-4.7c-3.8-2.2-7.1-5.2-10.5-9.6
			c-5.3-7-9.3-14-12-21c-1.6-0.4-3.5-0.8-5.6-1.2c-5.2-1.1-8.9-5.6-8.8-10.9c0-3.3,0.4-8.4,1.7-14.3c0.2-1.1,0.7-2.2,1.2-3.1
			c0.2-0.3,0.4-0.7,0.6-1l0.5-0.9c0.7-1.3,1.7-2.5,2.9-3.4c1.8-1.3,3.1-2.8,3.1-2.8c0.2-0.2,0.4-0.4,0.6-0.6
			c2-3.9,5.4-17.9,7.5-31.6c0-0.9,0.1-1.7,0.3-2.6c0.1-0.5,0.2-0.9,0.3-1.4c0.9-3.9,3.9-7,7.8-8.1c3-0.8,6.1-1.8,7.5-2.3
			c3.9-6.5,5.9-32.1,6.6-40.7c0-0.2,0-0.3,0-0.4c-1.7-0.7-3.2-1.8-4.4-3.2c-2.1-2.6-3-5.9-2.3-9.2c2.9-14.1,4.2-26,4.1-36.3
			c0-0.7,0-1.5,0.2-2.2c0.6-10.1-2.4-25.7-3.8-31.3c-4.4-15.5-12.6-16.2-14.6-16.2c-2.8,0.5-5.1-0.2-7.5-1.9
			c-1.7-1.2-3.3-2.3-4.9-3.4c-9.8-6.9-15.7-11-24.4-12.6c-9.8-1.8-24-0.3-46,4.7c-33,7.6-42.7,30.8-45.6,44c0,0.1-0.1,0.3-0.1,0.4
			c-3.6,14.1-3,31.5,1.7,54.6c0.7,3.3-0.2,6.6-2.3,9.2c-1.2,1.5-2.7,2.6-4.4,3.2c0,0.1,0,0.2,0,0.4c0.7,8.7,2.7,34.3,6.6,40.8
			c1.7,0.6,5.3,1.8,8.5,2.6c3.5,0.9,6.4,3.5,7.6,7c0.1,0.1,0.1,0.3,0.1,0.4c0.2,0.6,0.4,1.3,0.5,2c2.1,14.1,5.6,29.1,7.7,33.2
			c0.3,0.3,0.7,0.6,1,1c0.4,0.4,1.6,1.5,2.8,2.1c2.9,1.4,5.1,3.9,5.9,7c1.7,6.2,2.2,12.2,2.2,16.2c0.1,5.3-3.6,10-8.9,11
			c-3.1,0.6-5.7,1.2-7.8,1.6c-2.7,7-6.7,14.1-12,21c-3.3,4.4-6.6,7.4-10.5,9.6c-4.1,2.4-8.2,3.4-13,4.7l-1.6,0.4
			c-18.4,4.9-19,5.2-35.1,11.9l-2.9,1.2c-2.8,1.2-10.7,11.5-17.1,36.1C80.2,413.7,81,435.2,83.5,441.2z"/>
	</g>
	<rect x="385" y="37" display="inline" width="23" height="100"/>
	<rect x="346" y="75" display="inline" width="100" height="24"/>
</g>
<g id="レイヤー_50" display="none">
	<g display="inline">
		<g>
			<defs>
				<polygon id="SVGID_5_" points="250,37.2 89,192.3 54.5,225.5 54.5,272.6 54.5,462.7 89,462.7 89,239.3 250,84.2 411,239.3
					411,462.7 445.5,462.7 445.5,225.5 411,192.3 				"/>
			</defs>
			<use xlink:href="#SVGID_5_"  overflow="visible"/>
			<clipPath id="SVGID_6_">
				<use xlink:href="#SVGID_5_"  overflow="visible"/>
			</clipPath>
			<g clip-path="url(#SVGID_6_)">
				<defs>
					<rect id="SVGID_7_" x="-2794.2" y="-5380.9" width="27620.2" height="30206.9"/>
				</defs>
				<use xlink:href="#SVGID_7_"  overflow="visible"/>
				<clipPath id="SVGID_8_">
					<use xlink:href="#SVGID_7_"  overflow="visible"/>
				</clipPath>
				<rect x="-85.1" y="-102.4" clip-path="url(#SVGID_8_)" width="670.3" height="704.8"/>
			</g>
		</g>
		<g>
			<defs>
				<polygon id="SVGID_9_" points="181,324.8 181,462.8 215.5,462.8 215.5,359.3 284.5,359.3 284.5,462.8 319,462.8 319,324.8
					"/>
			</defs>
			<use xlink:href="#SVGID_9_"  overflow="visible"/>
			<clipPath id="SVGID_10_">
				<use xlink:href="#SVGID_9_"  overflow="visible"/>
			</clipPath>
			<g clip-path="url(#SVGID_10_)">
				<defs>
					<rect id="SVGID_11_" x="-2794.2" y="-5380.9" width="27620.2" height="30206.9"/>
				</defs>
				<use xlink:href="#SVGID_11_"  overflow="visible"/>
				<clipPath id="SVGID_12_">
					<use xlink:href="#SVGID_11_"  overflow="visible"/>
				</clipPath>
				<rect x="41.4" y="185.1" clip-path="url(#SVGID_12_)" width="417.3" height="417.3"/>
			</g>
		</g>
	</g>
</g>
<g id="レイヤー_52" display="none">
	<polygon display="inline" points="55,463 89,463 89,239 250,84 411,239 411,463 446,463 446,226 250,37 55,226 	"/>
	<polygon display="inline" points="181,463 215,463 215,359 284,359 284,463 319,463 319,325 181,325 	"/>
</g>
<g id="レイヤー_55" display="none">
	<rect x="158" y="158" display="inline" width="184" height="34.5"/>
	<rect x="158" y="307.5" display="inline" width="92" height="34.5"/>
	<rect x="158" y="232.8" display="inline" width="184" height="34.5"/>
	<path display="inline" d="M54.5,54.5v391h391v-391H54.5z M411,411H89V89h322V411z"/>
</g>
<g id="レイヤー_68" display="none">
	<polygon display="inline" points="86,463 119,463 119,71 389,71 389,463 422,463 422,37 86,37 	"/>
	<polygon display="inline" points="187,463 220,463 220,362 288,362 288,463 321,463 321,328 187,328 	"/>
	<rect x="164" y="250" display="inline" width="34" height="34"/>
	<rect x="237" y="250" display="inline" width="34" height="34"/>
	<rect x="310" y="250" display="inline" width="34" height="34"/>
	<rect x="310" y="183" display="inline" width="34" height="34"/>
	<rect x="237" y="183" display="inline" width="34" height="34"/>
	<rect x="310" y="115" display="inline" width="34" height="34"/>
	<rect x="237" y="115" display="inline" width="34" height="34"/>
	<rect x="164" y="115" display="inline" width="34" height="34"/>
	<rect x="164" y="183" display="inline" width="34" height="34"/>
</g>
<g id="レイヤー_56" display="none">
	<path display="inline" d="M407.5,250c0-8-0.7-16.3-2-24.5l53.8-39.9l-48.6-84.2l-61.5,26.7c-12.8-10.4-27.2-18.7-42.4-24.6
		L299.1,37h-97.3l-7.6,66.5c-15.2,5.9-29.6,14.2-42.4,24.6l-61.5-26.7l-48.6,84.2l53.8,39.9c-1.3,8.3-2,16.5-2,24.5
		c0,8.1,0.7,16.3,2,24.5l-53.8,39.9l48.6,84.2l61.5-26.7c12.8,10.4,27.2,18.7,42.4,24.6l7.6,66.5h97.3l7.6-66.5
		c15.2-5.9,29.6-14.2,42.4-24.6l61.5,26.7l48.6-84.2l-53.8-39.9C406.8,266.3,407.5,258.1,407.5,250z M415.2,323.6l-18.6,32.3
		l-53.8-23.4l-8.1,7.5c-13.8,13-30.5,22.6-48.3,28l-10.6,3.2l-6.6,58.2h-37.2l-6.6-58.2l-10.6-3.2c-17.7-5.4-34.4-15.1-48.3-28
		l-8.1-7.5l-53.8,23.4l-18.6-32.3l47.1-34.9l-2.5-10.7c-2.2-9.4-3.3-18.8-3.3-27.9c0-9,1.1-18.4,3.3-27.9l2.5-10.7l-47.1-34.9
		l18.6-32.3l53.8,23.4l8.1-7.5c13.8-12.9,30.5-22.6,48.3-28l10.6-3.2l6.6-58.2h37.2l6.6,58.2l10.6,3.2c17.7,5.4,34.4,15.1,48.3,28
		l8.1,7.5l53.8-23.4l18.6,32.3L368,211.4l2.5,10.7c2.2,9.4,3.3,18.8,3.3,27.9c0,9.1-1.1,18.5-3.3,27.9l-2.5,10.7L415.2,323.6z"/>
	<path display="inline" d="M250.5,182.7c-37.2,0-67.3,30.1-67.3,67.3s30.1,67.3,67.3,67.3c37.2,0,67.3-30.1,67.3-67.3
		S287.7,182.7,250.5,182.7z M250.5,285.9c-19.8,0-35.9-16.1-35.9-35.9s16.1-35.9,35.9-35.9c19.8,0,35.9,16.1,35.9,35.9
		S270.3,285.9,250.5,285.9z"/>
</g>
<g id="レイヤー_57" display="none">
	<path display="inline" d="M57,250c0-43.8,35.6-79.4,79.4-79.4h79.4v-34.1h-80v0C73.6,136.8,23,187.6,23,250s50.6,113.2,113,113.5v0
		h80v-34h-79.4C92.7,329.5,57,293.8,57,250z"/>
	<path display="inline" d="M477,250c0-62.4-50.6-113.2-113-113.5v0h-80v34.1h79.5c43.8,0,79.5,35.6,79.5,79.4s-35.6,79.5-79.5,79.5
		H284v34h80v0C426.4,363.2,477,312.4,477,250z"/>
	<rect x="159.2" y="233" display="inline" width="181.6" height="34"/>
</g>
<g id="レイヤー_58" display="none">
	<path display="inline" d="M250,20C159.6,20,86.3,93.2,86.3,183.4C86.3,334.2,250,480,250,480s163.7-145.8,163.7-296.6
		C413.7,93.2,340.4,20,250,20z M250,430.8C207.4,386.3,121.4,284,121.4,183.4c0-70.7,57.7-128.3,128.7-128.3
		c70.9,0,128.6,57.6,128.6,128.3C378.6,284,292.6,386.3,250,430.8z"/>
	<path display="inline" d="M250,121.4c-38.7,0-70.2,31.5-70.2,70.2s31.5,70.2,70.2,70.2s70.2-31.5,70.2-70.2S288.7,121.4,250,121.4z
		 M250,226.6c-19.3,0-35.1-15.7-35.1-35.1s15.7-35.1,35.1-35.1s35.1,15.7,35.1,35.1S269.3,226.6,250,226.6z"/>
</g>
<g id="レイヤー_59" display="none">
	<path display="inline" d="M250,37C132.3,37,37,132.3,37,250s95.3,213,213,213s213-95.3,213-213S367.7,37,250,37z M250,427.5
		c-97.9,0-177.5-79.6-177.5-177.5S152.1,72.5,250,72.5S427.5,152.1,427.5,250S347.9,427.5,250,427.5z"/>
	<ellipse display="inline" cx="250" cy="332.8" rx="21.9" ry="21.9"/>
	<path display="inline" d="M250,143.5c-37.7,0-65.1,28.4-65.1,67.4h35.5c0-19.7,11.3-31.9,29.6-31.9c13.6,0,29.6,6.2,29.6,23.7
		c0,11.5-5,16.1-16.4,25.4c-13.1,10.8-31,25.5-31,57.4h35.5c0-14.5,5.9-20,18.1-30c12.4-10.2,29.3-24.1,29.3-52.9
		C315.1,168.4,287.7,143.5,250,143.5z"/>
</g>
<g id="レイヤー_60" display="none">
	<g display="inline">
		<g>
			<path d="M285.8,252.4c37-29.4,57-67.4,57-109.3c0-61.5-39-106.1-92.8-106.1c-53.8,0-92.8,43.7-92.8,103.8
				c0,42.5,20.5,81.9,57.1,111.5C138.1,298.5,70.2,353.6,70.2,443.8V463h359.6v-19.2C429.8,353.7,362,298.6,285.8,252.4z
				 M195.5,140.8c0-39.2,21.9-65.5,54.5-65.5c32.1,0,54.4,27.9,54.4,67.7c0,33.8-19.2,64.7-54.4,87.9
				C215.2,207.8,195.5,175.4,195.5,140.8z M110,424.7c10-65.7,70.9-108.6,140-149c69.2,40.4,130.1,83.3,140,149H110z"/>
		</g>
	</g>
</g>
<g id="レイヤー_61" display="none">
	<polygon display="inline" points="383.6,426.5 91.5,426.5 91.5,134.4 201.1,134.4 201.1,97.9 55,97.9 55,463 420.1,463
		420.1,316.9 383.6,316.9 	"/>
	<path display="inline" d="M164.5,353.5h96.2L481,134.4L383.6,37L164.5,257.3V353.5z M197.4,270.9L383.7,83.5l50.8,50.8L247.1,320.6
		h-49.7V270.9z"/>
</g>
<g id="レイヤー_62" display="none">
	<path display="inline" d="M55,54.5v391h391v-391H55z M409.3,91.2v221.5l-66.9-76.5l-61.2,67.3l-97.8-110.1l-91.7,102V91.2H409.3z
		 M91.7,408.8v-58.5l91.6-101.9l97.7,109.9l61-67.1l67.5,77.1v40.5H91.7z"/>
</g>
<g id="レイヤー_63" display="none">
	<rect x="54.5" y="238.5" display="inline" width="34.5" height="206.7"/>
	<path display="inline" d="M444.9,209.1l-0.7-16.5H307.1v-74.6c0-34.8-28.3-63.2-63.2-63.2h-40.2l0,45c-3.3,63.7-12.8,91.6-62.4,131
		l-6.5,5.2v209.3h167.4c56.8,0,101.6-28.6,126.2-80.7C449.1,319,445.4,220.2,444.9,209.1z M397.2,350
		c-23.7,50.2-64.7,60.8-94.9,60.8h-133V252.5c54.4-45.3,65.4-84,68.9-151.7V89.2h5.7c15.8,0,28.7,12.9,28.7,28.7V227H411
		C411.4,262.2,409.5,323,397.2,350z"/>
</g>
<g id="レイヤー_64" display="none">
	<path display="inline" d="M323,76.2l-26.9,26.9l94.5,94.5H270.6c-148.8,0-234.1,82.4-234.1,226.1h38.1c0-85.8,34-188,196-188h119.9
		l-94.5,94.5l26.9,26.9l140.5-140.5L323,76.2z"/>
</g>
<g id="レイヤー_65" display="none">
	<path display="inline" d="M250,24C133.8,24,39.3,113.6,39.3,223.6c0,55.1,24.2,107.6,66.6,145.4v107l102-56.9
		c14.2,2.8,28.4,4.2,42.2,4.2c116.2,0,210.7-89.6,210.7-199.6S366.2,24,250,24z M250,390c-13.4,0-27.3-1.6-41.2-4.7l-6.2-1.4
		l-63.5,35.4v-65.8l-6.1-5c-38.4-31.7-60.5-77.2-60.5-124.9c0-91.7,79.6-166.4,177.5-166.4s177.5,74.6,177.5,166.4
		S347.8,390,250,390z"/>
	<rect x="150.2" y="179.3" display="inline" width="199.6" height="33.3"/>
	<rect x="150.2" y="245.8" display="inline" width="110.9" height="33.3"/>
</g>
<g id="レイヤー_75" display="none">
	<path display="inline" d="M250,24C133.8,24,39.3,113.6,39.3,223.6c0,55.1,24.2,107.6,66.6,145.4v107l102-56.9
		c14.2,2.8,28.4,4.2,42.2,4.2c116.2,0,210.7-89.6,210.7-199.6S366.2,24,250,24z M250,390c-13.4,0-27.3-1.6-41.2-4.7l-6.2-1.4
		l-63.5,35.4v-65.8l-6.1-5c-38.4-31.7-60.5-77.2-60.5-124.9c0-91.7,79.6-166.4,177.5-166.4s177.5,74.6,177.5,166.4
		S347.8,390,250,390z"/>
</g>
<g id="レイヤー_66" display="none">
	<path display="inline" d="M333.9,37L37,333.9V463h129.1L463,166.1L333.9,37z M150,424.3H75.7v-74.3L333.9,91.8l74.3,74.3L150,424.3
		z"/>
</g>
<g id="レイヤー_72" display="none">
	<g display="inline">
		<rect x="153.2" y="98.9" width="34.3" height="34.3"/>
	</g>
	<g display="inline">
		<rect x="153.2" y="232.9" width="34.3" height="34.3"/>
	</g>
	<g display="inline">
		<rect x="153.2" y="370.9" width="34.3" height="34.3"/>
	</g>
	<path display="inline" d="M398.7,33H101.8c-12.6,0-22.8,10.2-22.8,22.8v388.3c0,12.6,10.2,22.8,22.8,22.8h296.9
		c12.6,0,22.8-10.2,22.8-22.8V55.8C421.6,43.2,411.3,33,398.7,33z M387.3,67.3v96.1H113.2V67.3H387.3z M387.3,197.7v109.4H113.2
		V197.7H387.3z M113.2,432.7v-91.4h274.1v91.4H113.2z"/>
</g>
<g id="レイヤー_73" display="none">
	<g display="inline">
		<path d="M250,37C132.4,37,37,132.4,37,250c0,117.6,95.4,213,213,213s213-95.4,213-213C463,132.4,367.6,37,250,37z M250,427.5
			c-97.9,0-177.5-79.6-177.5-177.5S152.1,72.5,250,72.5S427.5,152.1,427.5,250S347.9,427.5,250,427.5z"/>
		<polygon points="267.8,155.3 232.2,155.3 232.2,232.2 155.3,232.2 155.3,267.8 232.2,267.8 232.2,344.7 267.8,344.7 267.8,267.8
			344.7,267.8 344.7,232.2 267.8,232.2 		"/>
	</g>
</g>
<g id="レイヤー_78" display="none">
	<path display="inline" d="M250,37C132.4,37,37,132.4,37,250s95.4,213,213,213c117.6,0,213-95.4,213-213S367.6,37,250,37z
		 M427.5,250c0,42.6-15.1,81.6-40.1,112.3L137.7,112.6c30.6-25.1,69.7-40.1,112.3-40.1C347.9,72.5,427.5,152.1,427.5,250z M72.5,250
		c0-42.6,15.1-81.6,40.1-112.3l249.6,249.6c-30.6,25.1-69.7,40.1-112.3,40.1C152.1,427.5,72.5,347.9,72.5,250z"/>
</g>
<g id="レイヤー_74" display="none">
	<path display="inline" d="M362.4,47H137.6L20,203.8L250,453l230-249.2L362.4,47z M215.4,185.4H77l69.2-92.2L215.4,185.4z
		 M180.8,81.6h138.4L250,173.9L180.8,81.6z M232.7,220v163.3L82,220H232.7z M267.3,220H418L267.3,383.3V220z M284.6,185.4l69.1-92.2
		l69.2,92.2H284.6z"/>
</g>
<g id="レイヤー_67" display="none">
	<path display="inline" d="M31,100.2v299.7h438V100.2H31z M428.5,134.7L250,274.2L71.5,134.7H428.5z M65.6,365.3V174L250,318
		l184.4-144v191.3H65.6z"/>
</g>
<g id="レイヤー_69" display="none">
	<path display="inline" d="M410.8,416.6H89.2V83.4h321.6V416.6z M445.3,49H54.7V451h390.6V49z"/>
	<rect x="273" y="129.4" display="inline" width="91.9" height="34.5"/>
	<rect x="273" y="198.3" display="inline" width="91.9" height="34.5"/>
	<rect x="135.1" y="267.2" display="inline" width="229.7" height="34.5"/>
	<path display="inline" d="M204.1,198.3h-34.5v-34.5h34.5V198.3z M238.5,129.4H135.1v103.4h103.4V129.4z"/>
	<rect x="135.1" y="336.2" display="inline" width="229.7" height="34.5"/>
</g>
<g id="レイヤー_70" display="none">
	<polygon display="inline" points="439.3,98.1 195,342.4 62.7,210.2 33,239.9 195,401.9 469,127.8 	"/>
</g>
<g id="レイヤー_71" display="none">
	<path display="inline" d="M376.8,260.8c26.9-21.5,42.2-51.5,42.2-85.6c0-46.6-29.1-79.5-71.2-80.1c-41.7,0.6-70.8,33.6-70.8,80.1
		c0,34.1,15.2,64.1,42.2,85.6c-25.8,15.8-50.8,31.3-69.5,51.1c-18.7-19.9-43.8-35.3-69.7-51.1c27-21.5,42.2-51.5,42.2-85.6
		c0-46.6-29.1-79.5-71.2-80.1c-41.7,0.6-70.8,33.6-70.8,80.1c0,34.1,15.2,64.1,42.2,85.6C70.6,292.4,21.7,322.4,21.7,390.2v15.5
		h455.8v-15.5C477.5,322.4,428.7,292.4,376.8,260.8z M308.1,175.1c0-24.1,12.4-48.7,39.7-49.1c27.7,0.4,40.2,24.9,40.2,49.1
		c0,27.8-14.3,52.1-39.6,68l-0.4-0.2l-0.4,0.2C322.4,227.3,308.1,202.9,308.1,175.1z M111.3,175.1c0-24.1,12.4-48.7,39.7-49.1
		c27.7,0.4,40.2,24.9,40.2,49.1c0,27.8-14.3,52.1-39.5,68l-0.4-0.2l-0.4,0.2C125.6,227.3,111.3,202.9,111.3,175.1z M54.1,374.7
		c6.8-39.9,40.3-60.4,84.9-87.6c4-2.5,8.2-5,12.3-7.5c4.1,2.6,8.3,5.1,12.3,7.6c44.5,27.2,78,47.7,84.8,87.6H54.1z M279.7,374.7
		c-1.7-13.9-5.6-26.1-11.3-37c15.4-18.6,39.1-33.3,67.4-50.6c4-2.5,8.2-5,12.3-7.5c4.2,2.6,8.3,5.1,12.3,7.6
		c44.5,27.2,78,47.7,84.8,87.6H279.7z"/>
</g>
<g id="レイヤー_80" display="none">
	<g display="inline">
		<path d="M250,170.4c-43.9,0-79.6,35.7-79.6,79.6s35.7,79.6,79.6,79.6c43.9,0,79.6-35.7,79.6-79.6S293.9,170.4,250,170.4z
			 M250,295.5c-25.1,0-45.5-20.4-45.5-45.5s20.4-45.5,45.5-45.5c25.1,0,45.5,20.4,45.5,45.5S275.1,295.5,250,295.5z"/>
		<path d="M250,102.1c-116.1,0-196.4,82.1-227.5,147.9C53.6,315.8,133.9,397.9,250,397.9c116.1,0,196.4-82.1,227.5-147.9
			C446.4,184.2,366.1,102.1,250,102.1z M250,363.8c-97,0-160.9-65.9-188.9-113.8c28-47.9,91.9-113.8,188.9-113.8
			c97,0,160.9,65.9,188.9,113.8C410.9,297.9,347,363.8,250,363.8z"/>
	</g>
</g>
<g id="レイヤー_81" display="none">
	<path display="inline" d="M325.8,98.3c-27.6,0-53.5,7.6-75.8,20.5c-22.3-13-48.2-20.5-75.8-20.5c-83.6,0-151.7,68-151.7,151.7
		s68,151.7,151.7,151.7c27.6,0,53.5-7.6,75.8-20.5c22.3,13,48.2,20.5,75.8,20.5c83.6,0,151.7-68,151.7-151.7S409.5,98.3,325.8,98.3z
		 M174.2,369.2C108.5,369.2,55,315.7,55,250s53.5-119.2,119.2-119.2c16.7,0,32.6,3.5,47,9.7c-28.9,27.6-47,66.4-47,109.5
		s18.1,81.8,47,109.5C206.7,365.7,190.8,369.2,174.2,369.2z M293.3,250c0,36.9-16.9,70-43.3,91.9c-26.4-21.9-43.3-54.9-43.3-91.9
		s16.9-70,43.3-91.9C276.4,180,293.3,213.1,293.3,250z M325.8,369.2c-16.7,0-32.6-3.5-47-9.7c28.9-27.6,47-66.4,47-109.5
		s-18.1-81.8-47-109.5c14.4-6.2,30.3-9.7,47-9.7c65.7,0,119.2,53.5,119.2,119.2S391.5,369.2,325.8,369.2z"/>
</g>
<g id="レイヤー_76" display="none">
	<g display="inline">
		<rect x="191.5" y="427.5" width="118.3" height="35.5"/>
		<path d="M443.2,353c-0.1-0.2-10.2-16.3-41-70.3l-2.2-3.9c-22.5-39.4-31-54.2-31-111.4V120h-0.2c-2.6-49.2-38.3-83-88.6-83h-59.2
			c-52.3,0-88.8,36.5-88.8,88.8v41.6c0,57.2-8.4,72-31,111.4l-2.2,3.9c-30.8,54-40.9,70.2-41,70.3l-17.1,27.2l419.2,0L443.2,353z
			 M104.4,344.7c6.3-10.7,14.6-25.2,25.6-44.5l2.2-3.9c23.7-41.5,35.6-62.4,35.6-129v-41.6c0-24.6,13.9-53.2,53.2-53.2h59.2
			c39.3,0,53.2,28.7,53.2,53.2v41.6c0,66.6,11.9,87.5,35.6,129l2.2,3.9c11,19.3,19.4,33.7,25.6,44.5H104.4z"/>
	</g>
</g>
<g id="レイヤー_77" display="none">
	<g display="inline">
		<g>
			<path d="M271,37L37,271l192,192l234-234V37H271z M427,214.1l-198,198L87.9,271l198-198H427V214.1z"/>
		</g>
		<g>
			<path d="M349,181c16.5,0,30-13.4,30-30s-13.5-30-30-30s-30,13.4-30,30S332.5,181,349,181z"/>
		</g>
	</g>
</g>
<g id="レイヤー_82">
	<g>
		<path d="M178.7,321.6L463.1,37.2l-0.3,0.1l0.1-0.3l-426,142.8l118.6,118.7l0,0L178.7,321.6z M97.5,194l244.4-81.9L178.7,275.3
			L97.5,194z"/>
		<polygon points="387.3,159.3 305.8,402.4 225,321.6 201.9,344.8 320.1,463 439.3,107.3 		"/>
	</g>
</g>
<g id="レイヤー_79" display="none">
	<path display="inline" d="M364.4,111.6V75c0-29.6-23.9-53.8-53.2-53.8H188.8c-29.3,0-53.2,24.1-53.2,53.8v36.6
		c0,58,24.2,99.4,82,138.4c-57.9,39-82,80.4-82,138.4V425c0,29.6,23.9,53.8,53.2,53.8h122.4c29.3,0,53.2-24.1,53.2-53.8v-36.6
		c0-58-24.2-99.4-82-138.4C340.2,211,364.4,169.6,364.4,111.6z M330.1,388.4V425c0,10.7-8.5,19.4-18.9,19.4H188.8
		c-10.4,0-18.9-8.7-18.9-19.4v-36.6c0-42.8,13.8-77.9,80.1-118.4C316.3,310.5,330.1,345.6,330.1,388.4z M250,230
		c-66.3-40.5-80.1-75.6-80.1-118.4V75c0-10.7,8.5-19.4,18.9-19.4h122.4c10.4,0,18.9,8.7,18.9,19.4v36.6
		C330.1,154.4,316.3,189.5,250,230z"/>
</g>
<g id="ガイド">
</g>
<g id="レイヤー_11のコピー_2" display="none">
	<g display="inline">
		<path fill-rule="evenodd" clip-rule="evenodd" d="M333.2,234.2c-12.3-5.1-12.3-5.3-25.1-8.7c-3.3-0.9-5.6-1.4-7.6-2.6
			c-1.6-0.9-3-2.2-4.6-4.3c-3.4-4.5-6.3-9.6-7.8-15.1c0,0-2.9-0.8-7.6-1.8c0-2.1,0.3-4.8,0.9-7.6c0.3-0.4,0.5-0.9,0.7-1.3
			c1.6-1.3,2.9-2.6,2.9-2.6c3.7-2.2,7.1-25.4,7.1-25.4L292,165c0.1-0.3,0.2-0.6,0.2-1c2.9-0.8,5.9-1.8,5.9-1.8
			c5.9-1.4,7.4-20.4,8.3-31.9c0.5-5.9-2-7.3-4.4-7.3c1.7-8.2,2.9-16.6,2.7-24.7l0,0c0.8-9.1-2.5-23-2.5-23
			c-4.8-17.1-16.9-15.5-16.9-15.5c-15.4-10.6-19.7-16-53.6-8.2c-25.4,5.8-32.4,24.5-34.3,33.4c-3,11.8-1.6,25,1,38
			c-2.4,0-4.8,1.4-4.4,7.3c0.9,11.5,2.4,30.5,8.3,31.9c0,0,3.5,1.2,6.6,2c0,0.1,0,0.1,0.1,0.2c0.1,0.5,3.4,23.2,7.1,25.4
			c0,0,1.6,1.9,4.1,3.1c0.9,3.1,1.1,6.2,1.2,8.6c-5.6,1.1-9.1,2-9.1,2c-1.5,5.5-4.4,10.6-7.8,15.1c-1.6,2.1-3,3.4-4.6,4.3
			c-2,1.2-4.3,1.7-7.6,2.6c-12.8,3.4-12.8,3.5-25.1,8.6c-15.1,6.3-26.9,71.6-12,71.6h95h94.4C359.5,305.7,348.3,240.5,333.2,234.2"
			/>
	</g>
	<g display="inline">
		<path d="M200.6,344.1c-0.7,4.6-1,9.1-1,17v44.4c0,25.9-15.4,40.4-42.7,40.4c-13.9,0-25.4-4.3-32.3-11.8
			c-6.4-6.9-9.4-16.3-9.4-28.8v-44.2c0-7.8-0.2-12.6-1-17.1h18.6c-0.8,4.3-1,9-1,17.1v44.2c0,16.9,8.8,25.8,25.7,25.8
			c16.8,0,25.4-8.9,25.4-25.9v-44.1c0-8-0.2-12.5-1-17.1H200.6z"/>
		<path d="M281.9,443.7c-0.2-3-2.4-9.4-6.5-20c-6.8-17.3-11.1-21.9-20.8-21.9h-18.6v25.5c0,7.5,0.2,11.5,1,16.4h-18.6
			c0.7-5.3,1-8.6,1-16.3V360c0-6.6-0.2-10.4-1-16.3c5.3,0.2,9.1,0.4,16,0.4h30c19,0,29.9,9.5,29.9,26c0,8-2.1,14.3-6.4,18.6
			c-3.5,3.6-6.8,5.3-13.9,7.3c7.9,2.5,10.3,6,22.7,35.3c1,2.3,4.1,9,5.9,12.4H281.9z M261.1,387.5c4.6,0,9-1.6,11.9-4.5
			c2.6-2.6,4-6.3,4-11c0-9-5.1-13.6-15.4-13.6h-25.7v29.2H261.1z"/>
		<path d="M385.8,444.6c-4.5-0.6-8.9-0.9-17.8-0.9h-37c-7,0-11.4,0.1-15.9,0.4c0.7-4.6,1-9.3,1-16.5v-65c0-8.6-0.2-13.1-1-18.5H334
			c-0.8,5.1-1,9.3-1,18.4v66.1h35c8.5,0,12.5-0.2,17.8-0.9V444.6z"/>
	</g>
</g>
<g id="レイヤー_11のコピー_3" display="none">
	<g display="inline">
		<path d="M183.2,326.3c-1,6.3-1.4,12.3-1.4,23v60c0,35-20.8,54.6-57.7,54.6c-18.8,0-34.3-5.7-43.6-15.9c-8.6-9.3-12.7-22-12.7-38.9
			v-59.7c0-10.5-0.3-17.1-1.3-23.2h25.2c-1,5.7-1.4,12.2-1.4,23.2v59.7c0,22.8,11.8,34.8,34.7,34.8c22.7,0,34.3-12,34.3-35v-59.5
			c0-10.8-0.3-16.9-1.4-23.2H183.2z"/>
		<path d="M293,460.9c-0.3-4.1-3.2-12.7-8.8-27.1c-9.1-23.3-15.1-29.6-28.1-29.6H231v34.5c0,10.1,0.3,15.6,1.4,22.2h-25.2
			c1-7.1,1.3-11.7,1.3-22v-91.2c0-9-0.3-14-1.3-22c7.1,0.3,12.3,0.5,21.6,0.5h40.6c25.7,0,40.4,12.9,40.4,35.2
			c0,10.8-2.9,19.3-8.6,25.2c-4.7,4.9-9.1,7.1-18.8,9.8c10.7,3.4,13.9,8.1,30.6,47.7c1.4,3,5.6,12.2,7.9,16.7H293z M265,385
			c6.3,0,12.2-2.2,16.1-6.1c3.6-3.6,5.4-8.5,5.4-14.9c0-12.2-6.9-18.4-20.8-18.4H231V385H265z"/>
		<path d="M433.5,462.1c-6.1-0.8-12-1.2-24-1.2h-50.1c-9.5,0-15.4,0.2-21.5,0.5c1-6.3,1.3-12.5,1.3-22.3v-87.8
			c0-11.7-0.3-17.8-1.3-25h25.5c-1,6.9-1.4,12.5-1.4,24.9v89.3h47.4c11.5,0,16.9-0.3,24-1.2V462.1z"/>
	</g>
	<g display="inline">
		<path d="M346.6,307.2H153.3c-3.2,0-10.8-1.4-13.3-13.8c-2.3-11.6,0.3-28.6,3.5-40.6c3.3-12.5,9.4-28.3,19.3-32.5l1.9-0.8
			c10.9-4.5,11.8-4.9,24.7-8.3l1.1-0.3c2.3-0.6,4-1,5-1.6c0.5-0.3,1.3-0.9,2.5-2.5c3.4-4.4,5.6-8.7,6.7-12.9c0.7-2.5,2.6-4.4,5-5.1
			c0.1,0,0.9-0.2,2.3-0.6c-0.5-0.4-0.9-0.8-1.2-1.1c-2.2-1.7-5.7-6.3-9-26c-1.1-0.4-2-0.7-2.5-0.8c-9.9-2.8-11.9-17.9-13.5-38.9
			c-0.4-5,0.7-9,3.2-11.7c0.1-0.1,0.2-0.2,0.3-0.3c-2.5-14.6-2.5-26.3,0-36.4c2.1-9.7,10.3-32.5,40.4-39.4c33.8-7.8,42-3.4,57.2,7.3
			c0.4,0.3,0.8,0.6,1.3,0.9c7,0.5,17.5,5.2,21.9,21.1c0,0.1,0,0.2,0.1,0.2c0.4,1.6,3.7,15.6,2.8,25.8c0,0,0,0,0,0.1
			c0,6.1-0.6,12.9-1.9,20.5c0.1,0.1,0.2,0.2,0.3,0.3c2.5,2.7,3.6,6.7,3.3,11.7c-1.6,21-3.6,36.1-13.5,38.9c-0.3,0.1-1,0.3-1.7,0.6
			c-0.4,2.4-1,5.6-1.7,8.9c-2.5,11.5-4.7,15.7-7.4,17.8c-0.2,0.2-0.5,0.5-0.9,0.9c0.8,0.2,1.3,0.3,1.3,0.3c2.5,0.7,4.4,2.6,5,5.1
			c1.1,4.1,3.4,8.5,6.7,12.9c1.2,1.6,2,2.2,2.5,2.5c1,0.6,2.6,1,5,1.6l1.1,0.3c12.4,3.3,13.7,3.8,23.5,7.9l3.1,1.3l0,0
			c9.9,4.1,15.8,19.8,19.1,32.3c3.1,11.9,5.6,28.8,3.3,40.5C357.5,305.8,349.8,307.2,346.6,307.2z M154.6,292.9h190.6
			c1.7-3.9,2.4-17.9-2.2-36c-4-15.9-9.1-22.6-10.9-23.3l-3.1-1.3c-9.4-3.9-10.2-4.2-21.6-7.3l-1.1-0.3c-3.1-0.8-5.8-1.5-8.5-3.1
			c-2.5-1.4-4.7-3.4-6.8-6.3c-3.4-4.5-6-9.1-7.8-13.7c-1-0.2-2.3-0.5-3.7-0.8c-3.4-0.7-5.8-3.7-5.7-7.1c0-2.1,0.2-5.5,1.1-9.3
			c0.2-0.7,0.4-1.4,0.8-2c0.1-0.2,0.3-0.5,0.4-0.7l0.3-0.6c0.5-0.9,1.1-1.6,1.9-2.2c1.1-0.9,2-1.8,2-1.8c0.1-0.1,0.3-0.3,0.4-0.4
			c1.3-2.5,3.5-11.7,4.9-20.6c0-0.6,0.1-1.1,0.2-1.7c0.1-0.3,0.1-0.6,0.2-0.9c0.6-2.6,2.6-4.6,5.1-5.3c1.9-0.5,3.9-1.2,4.9-1.5
			c2.5-4.2,3.8-20.9,4.3-26.5c0-0.1,0-0.2,0-0.3c-1.1-0.4-2.1-1.2-2.9-2.1c-1.4-1.7-1.9-3.9-1.5-6c1.9-9.2,2.8-16.9,2.6-23.6
			c0-0.5,0-1,0.1-1.4c0.4-6.6-1.6-16.7-2.4-20.3c-2.9-10.1-8.2-10.6-9.5-10.5c-1.8,0.3-3.3-0.2-4.9-1.2c-1.1-0.8-2.2-1.5-3.2-2.2
			c-6.4-4.5-10.2-7.2-15.9-8.2c-6.4-1.2-15.6-0.2-29.9,3.1c-21.5,4.9-27.8,20.1-29.7,28.6c0,0.1,0,0.2-0.1,0.3
			c-2.3,9.2-2,20.5,1.1,35.5c0.4,2.1-0.1,4.3-1.5,6c-0.8,0.9-1.8,1.7-2.9,2.1c0,0.1,0,0.2,0,0.2c0.4,5.6,1.7,22.3,4.3,26.6
			c1.1,0.4,3.5,1.2,5.5,1.7c2.3,0.6,4.2,2.3,5,4.5c0,0.1,0.1,0.2,0.1,0.3c0.1,0.4,0.3,0.9,0.3,1.3c1.4,9.2,3.6,18.9,5,21.6
			c0.2,0.2,0.4,0.4,0.6,0.7c0.3,0.3,1,1,1.8,1.4c1.9,0.9,3.3,2.6,3.8,4.6c1.1,4.1,1.4,8,1.5,10.6c0.1,3.5-2.4,6.5-5.8,7.2
			c-2,0.4-3.7,0.8-5.1,1.1c-1.7,4.6-4.4,9.2-7.8,13.7c-2.2,2.8-4.3,4.8-6.8,6.3c-2.7,1.5-5.4,2.2-8.5,3.1L193,225
			c-12,3.2-12.4,3.4-22.8,7.7l-1.9,0.8c-1.8,0.8-7,7.5-11.1,23.5C152.5,275,153,289,154.6,292.9z"/>
	</g>
</g>
<g id="レイヤー_29" display="none">
	<g display="inline">
		<g>
			<path d="M398,47.8H102c-5.1,0-9.2,4.1-9.2,9.1v386c0,5.1,4.1,9.1,9.2,9.1H398c5.1,0,9.2-4.1,9.2-9.1V57
				C407.2,51.9,403.1,47.8,398,47.8z M318,433.9h-50.6V303.1H318V433.9z M388.8,433.9h-52.4v-140c0-5.1-4.1-9.1-9.2-9.1h-69
				c-5.1,0-9.2,4.1-9.2,9.1v140H111.2V66.1h277.7V433.9z M141.5,164.9h46c5.1,0,9.2-4.1,9.2-9.1V96.3c0-5-4.1-9.1-9.2-9.1h-46
				c-5.1,0-9.2,4.1-9.2,9.1v59.5C132.3,160.8,136.4,164.9,141.5,164.9z M150.7,105.5h27.6v41.2h-27.6V105.5z M227,164.9h46
				c5.1,0,9.2-4.1,9.2-9.1V96.3c0-5-4.1-9.1-9.2-9.1h-46c-5.1,0-9.2,4.1-9.2,9.1v59.5C217.8,160.8,221.9,164.9,227,164.9z
				 M236.2,105.5h27.6v41.2h-27.6V105.5z M312.5,164.9h46c5.1,0,9.2-4.1,9.2-9.1V96.3c0-5-4.1-9.1-9.2-9.1h-46
				c-5.1,0-9.2,4.1-9.2,9.1v59.5C303.3,160.8,307.4,164.9,312.5,164.9z M321.7,105.5h27.6v41.2h-27.6V105.5z M141.5,263.7h46
				c5.1,0,9.2-4.1,9.2-9.2v-59.5c0-5.1-4.1-9.2-9.2-9.2h-46c-5.1,0-9.2,4.1-9.2,9.2v59.5C132.3,259.6,136.4,263.7,141.5,263.7z
				 M150.7,204.3h27.6v41.2h-27.6V204.3z M227,263.7h46c5.1,0,9.2-4.1,9.2-9.2v-59.5c0-5.1-4.1-9.2-9.2-9.2h-46
				c-5.1,0-9.2,4.1-9.2,9.2v59.5C217.8,259.6,221.9,263.7,227,263.7z M236.2,204.3h27.6v41.2h-27.6V204.3z M312.5,263.7h46
				c5.1,0,9.2-4.1,9.2-9.2v-59.5c0-5.1-4.1-9.2-9.2-9.2h-46c-5.1,0-9.2,4.1-9.2,9.2v59.5C303.3,259.6,307.4,263.7,312.5,263.7z
				 M321.7,204.3h27.6v41.2h-27.6V204.3z M141.5,362.5h46c5.1,0,9.2-4.1,9.2-9.1v-59.5c0-5.1-4.1-9.1-9.2-9.1h-46
				c-5.1,0-9.2,4.1-9.2,9.1v59.5C132.3,358.4,136.4,362.5,141.5,362.5z M150.7,303.1h27.6v41.2h-27.6V303.1z"/>
		</g>
	</g>
</g>
<g id="レイヤー_30" display="none">
	<path display="inline" fill-rule="evenodd" clip-rule="evenodd" d="M424.4,436H75.7c-13.7,0-24.9-11.2-24.9-24.9V262.3h0v-24.9h0
		v-87.2c0-13.7,11.2-24.9,24.9-24.9h99.6v-24.1c0-20.6,16.8-37.3,37.4-37.3h74.9c20.6,0,37.4,16.7,37.4,37.3v24.1h99.5
		c13.7,0,24.9,11.2,24.9,24.9v260.8C449.3,424.8,438,436,424.4,436z M300,101.3c0-6.9-5.6-12.4-12.5-12.4h-74.9
		c-6.9,0-12.5,5.6-12.5,12.4v24.1H300V101.3z M424.4,150.3H75.7v87.2h136.9v-12.7c0-13.7,11.2-24.9,24.9-24.9h24.8
		c13.7,0,24.9,11.2,24.9,24.9v12.7h137.1V150.3z M237.5,224.7v62.6h24.8l0-62.6H237.5z M424.4,262.3H287.2v25
		c0,13.7-11.2,24.9-24.9,24.9h-24.8c-13.7,0-24.9-11.2-24.9-24.9v-25H75.7v148.8h348.7V262.3z"/>
</g>
<g id="レイヤー_31" display="none">
	<path display="inline" fill-rule="evenodd" clip-rule="evenodd" d="M399.4,409.4H100.6c-27.5,0-49.8-22-49.8-49V139.6
		c0-27.1,22.3-49,49.8-49h298.9c27.5,0,49.8,22,49.8,49v220.7C449.3,387.4,427,409.4,399.4,409.4z M113,115.1l137,117.3l137-117.3
		H113z M424.4,139.6c0-7.1-3.1-13.4-7.9-17.8L250,262.3L83.6,121.8c-4.8,4.5-7.9,10.8-7.9,17.8v220.7c0,13.5,11.2,24.5,24.9,24.5
		h298.9c13.8,0,24.9-11,24.9-24.5V139.6z"/>
</g>
<g id="レイヤー_32" display="none">
	<path display="inline" fill-rule="evenodd" clip-rule="evenodd" d="M130.2,77.1c0.4,0,0.7,0,1,0.1c6.9,10.1,44,66.3,50.7,76.8
		c0,1.1-0.3,3.9-2.5,7.9c-2.2,4.3-9.2,16.7-19.1,34.2l-7.7,13.6l9,12.8c6.7,9.5,22.6,30.2,53.9,61.6c31.5,31.6,52.1,47.5,61.5,54.1
		l12.8,9l13.5-7.7c13.1-7.5,29-16.5,34.1-19.2c4.1-2.2,7-2.4,7.7-2.4c0.1,0,0.2,0,0.3,0c9.4,5.9,66.7,44.1,76.8,51
		c0.2,1,0,3.1-1.8,5.8c-15.6,21.6-37.7,44.2-46.3,47.4c-46-2.2-110.6-42.7-182.1-114.4C120.4,236,79.9,171.3,77.8,125.3
		c3.1-8.7,25.6-31,47-46.5C126.4,77.7,128.3,77.1,130.2,77.1 M130.2,53.2c-6.5,0-13.4,2-19.4,6.1c-0.6,0.4-58.3,41.6-57.6,65.5
		c2.1,67.1,67.1,145.9,121.3,200.2s132.8,119.5,200,121.7h0.6c23.5,0,64.9-57.2,65.3-57.7c10.8-15.5,6.9-32.6-3-39.6
		c-6-4.2-71.8-48-79.8-53c-3.5-2.2-7.8-3.2-12.5-3.2c-6,0-12.7,1.8-19.2,5.2c-6.3,3.3-25.5,14.3-34.9,19.6
		c-8.3-5.8-27.7-20.7-58.2-51.4c-30.4-30.4-45.4-50.1-51.2-58.4c5.3-9.4,16.2-28.6,19.6-34.9c6.3-11.9,7-23.8,1.9-31.9
		c-4.8-7.6-48.3-73-52.8-79.2C146,56.4,138.4,53.2,130.2,53.2L130.2,53.2z"/>
</g>
<g id="レイヤー_32のコピー" display="none">
	<path display="inline" fill-rule="evenodd" clip-rule="evenodd" d="M172.9,46.3c0.3,0,0.5,0,0.6,0.1c4.4,6.5,28.3,42.7,32.6,49.4
		c0,0.7-0.2,2.5-1.6,5.1c-1.4,2.8-5.9,10.8-12.3,22l-5,8.7l5.8,8.2c4.3,6.1,14.5,19.4,34.7,39.6c20.3,20.3,33.5,30.5,39.6,34.8
		l8.2,5.8l8.7-5c8.4-4.8,18.6-10.6,21.9-12.4c2.7-1.4,4.5-1.5,5-1.5c0.1,0,0.1,0,0.2,0c6,3.8,42.9,28.3,49.4,32.8
		c0.1,0.6,0,2-1.2,3.7c-10,13.9-24.2,28.4-29.8,30.5c-29.6-1.4-71.2-27.5-117.2-73.6c-46-46.1-72-87.7-73.4-117.3
		c2-5.6,16.5-19.9,30.2-29.9C170.5,46.7,171.7,46.3,172.9,46.3 M172.9,30.9c-4.2,0-8.6,1.3-12.5,4c-0.4,0.3-37.5,26.8-37,42.1
		c1.4,43.1,43.2,93.9,78,128.8s85.4,76.9,128.6,78.3h0.4c15.1,0,41.7-36.8,42-37.1c7-10,4.4-21-1.9-25.5
		c-3.9-2.7-46.2-30.9-51.3-34.1c-2.3-1.4-5-2.1-8-2.1c-3.9,0-8.1,1.1-12.3,3.3c-4.1,2.1-16.4,9.2-22.4,12.6
		c-5.3-3.7-17.8-13.3-37.5-33.1c-19.5-19.6-29.2-32.2-32.9-37.6c3.4-6,10.4-18.4,12.6-22.5c4-7.7,4.5-15.3,1.2-20.5
		c-3.1-4.9-31.1-47-34-51C183.1,33,178.2,30.9,172.9,30.9L172.9,30.9z"/>
	<g display="inline">
		<path d="M151.9,367c8.3,0,12.9-0.2,16.6-1v21.2c-4.2-0.8-9.2-1-15.6-1H88.3c-9.4,0-13.7,0.2-19.3,1V366c5.2,0.8,9.6,1,19.5,1h38
			c4.6-10.8,7.5-19.7,10-31.4l19.8,5c-2.7,9.3-6,17.5-10.2,26.4H151.9z M149.2,315c8.7,0,12.9-0.2,17.5-1v20.8c-4-0.8-7.9-1-16.2-1
			H88.9c-7.1,0-11.6,0.2-15.8,1V314c4.4,0.8,8.9,1,18.3,1h19.7v-5.4c0-5.4-0.4-9.6-1.2-13.5h22.9c-0.6,3.9-1,7.9-1,13.5v5.4H149.2z
			 M100.6,473.3H79.8c0.6-5.4,0.8-10,0.8-18.1v-41.8c0-7.9-0.2-11.4-0.6-15.8c4.4,0.4,8.3,0.6,15.4,0.6h49.7
			c7.9,0,11.2-0.2,14.1-0.6c-0.4,3.5-0.6,6-0.6,14.2v46.8c0,6.7,0.2,10.2,0.8,14.4h-21.2v-11h-37.6V473.3z M103.7,334.1
			c4.4,8.9,7.1,16.2,10,27l-19.1,5.8c-2.7-11.6-4.8-18.1-9.1-27L103.7,334.1z M100.6,443.7h37.8v-27h-37.8V443.7z M247.4,314
			c-1.3,2.5-2.1,4-3.9,8.5c-6.5,17.1-12.7,30.4-20.8,45.9c10.6,12.1,14.8,18.5,18.5,27.9c3.5,8.3,5.4,18.1,5.4,26.8
			c0,12.1-5,21-13.7,24.1c-4.8,1.9-10.2,2.5-19.6,2.5c-3.3,0-5,0-9.6-0.4c-0.4-10-1.3-14.6-4.4-21c5,0.8,8.9,1.2,14.5,1.2
			c9.6,0,12.7-2.1,12.7-8.3c0-8.1-2.1-16.6-6.2-24.8c-4.4-8.9-8.7-14.4-20-25.1c11.2-20.6,17-34.3,21.2-50.5h-26.8V452
			c0,10.4,0.4,17,1.3,22.5h-22.7c0.8-6.2,1.2-13.7,1.2-22V317.1c0-5.6-0.2-11-0.8-16.2c5.2,0.6,9.4,0.8,15.8,0.8h33.3
			c7.5,0,11.6-0.2,15.2-1L247.4,314z"/>
		<path d="M290.5,449.3c0,11.6,0.4,18.3,1.2,23.7h-22.7c0.8-6.2,1.2-12.9,1.2-23.9V322.9c0-10.2-0.2-15.6-0.8-21.8
			c5.6,0.6,10,0.8,19.7,0.8h34.1c10,0,14.4-0.2,19.6-0.8c-0.4,5.4-0.6,10.4-0.6,17.9v37.8c0,9.1,0.2,12.9,0.6,17.1
			c-4.6-0.2-11-0.4-17.7-0.4h-34.5V449.3z M290.5,331h32.8v-12.3h-32.8V331z M290.5,358.1h32.8V346h-32.8V358.1z M430,449.1
			c0,18.5-5.2,22-32.9,22c-3.5,0-7.9-0.2-15.8-0.4c-1.2-9.2-2.5-14.6-5.2-21c9.6,1.1,17.3,1.7,26,1.7c6,0,7.3-0.8,7.3-4.8v-72.8
			h-36.2c-6.9,0-13.7,0.2-17.7,0.6c0.4-4.4,0.6-9.3,0.6-17.5V319c0-6.6-0.2-11.9-0.6-17.9c5.6,0.6,9.6,0.8,19.6,0.8h35.8
			c9.8,0,14.3-0.2,20-0.8c-0.8,6.7-1,11.9-1,21.6V449.1z M375.3,331h34.1v-12.3h-34.1V331z M375.3,358.1h34.1V346h-34.1V358.1z"/>
	</g>
</g>
<g id="レイヤー_32のコピー_2" display="none">
	<g display="inline">
		<path d="M150.5,316.8c1.1-6.5,1.7-10.9,1.7-15l22.2,1.8c-0.6,2.1-0.7,2.4-1.3,5.9c-0.4,1.9-0.4,1.9-1.7,7.2h41.9
			c10.7,0,16.7-0.4,23.2-1.1v20.2c-6.1-0.7-11.5-0.9-23.2-0.9h-45.9c-0.9,3.7-1.3,5.2-2.6,10h32.8c11.5,0,16.5-0.2,22-0.6
			c-0.6,4.8-0.7,10-0.7,21.3v52.8c0,10.9,0.2,15.7,0.7,20.7c-6.1-0.6-9.8-0.6-22-0.6h-58.7c-11.7,0-15.7,0.2-21.9,0.6
			c0.6-4.6,0.7-10.9,0.7-20.7v-52.8c0-11.5-0.2-16.3-0.7-21.3c5.7,0.4,10.7,0.6,22.2,0.6h4.6c0.9-2.8,1.8-6.5,2.8-10H95.3
			c-8.3,0-15.2,0.4-21.9,1.1v-20.4c6.5,0.7,12.6,1.1,22.2,1.1H150.5z M216.6,448.3c9.1,0,13.7-0.2,20-1.1V468
			c-6.7-0.7-11.9-1.1-21.9-1.1H101v7.4H78.8c0.7-6.5,1.1-14.4,1.1-25.6V372c0-10-0.4-16.3-0.9-20.7h23.2c-0.6,5.4-0.9,11.9-0.9,19.6
			v77.4H216.6z M137.3,371.3h61.3V362h-61.3V371.3z M137.3,396.1h61.3V387h-61.3V396.1z M137.3,421.7h61.3v-9.5h-61.3V421.7z"/>
		<path d="M253.6,373.7c4.6,0.7,7.8,0.9,14.1,0.9h13c5.6,0,9.8-0.2,14.1-0.9c-0.6,5.7-0.7,10.2-0.7,20.2v39.7
			c3.2,5.4,5.2,7.6,9.1,10.4c3.5,2.4,6.7,4.1,9.3,4.8c8.5,2.2,20,3.3,36.9,3.3c30.2,0,40.4-0.6,77.4-4.8c-2.4,6.7-4.1,14.1-5.4,22.1
			c-24.3,1.1-43,1.5-74.1,1.5c-18.9,0-33.5-1.7-41.7-4.6c-9.1-3.3-13.9-6.8-21.5-15.7c-1.3,1.3-2.2,2.2-3,2.8
			c-6.5,6.7-6.5,6.7-20.6,18l-10-20.4c6.9-3.2,15.6-9.6,24.4-17.8v-39.5h-9.4c-4.6,0-7.6,0.2-11.9,0.9V373.7z M267.8,305.9
			c13.3,11.7,23.2,21.7,32,33.5l-15.4,15c-10.7-14.8-18.5-23.5-31.5-34.6L267.8,305.9z M342.3,343.5c-10-6.8-10.4-7-15.4-9.6
			l14.3-8.3h-17.6c-9.1,0-13.3,0.2-19.3,0.9v-18.9c5.9,0.7,11.7,1.1,22,1.1h60c11.7,0,17.6-0.4,20.9-1.3l9.4,11.5
			c-3,1.8-3.9,2.6-9.3,7c-7.4,6.3-16.5,12.8-23.9,17.6h14.8c9.3,0,14.4-0.2,18.9-0.9c-0.6,5-0.7,11.1-0.7,21.5v57.1
			c0,10.6-0.7,14.3-3.3,17c-3.3,3.1-8,4.3-19.4,4.3c-1.7,0-4.8,0-8.3-0.2c-0.6-7.4-1.7-12-4.3-17.6c5,0.7,9.3,1.1,12.2,1.1
			c4.1,0,4.3-0.4,4.3-5.2v-7.2h-27.8v7.8c0,10.2,0.2,14.8,1.1,20.6h-20.6c0.7-5.4,1.1-10.9,1.1-20.6v-7.8h-25v9.4
			c0,10.9,0.2,15.7,1.1,20.2h-20.9c0.7-5,0.9-10.7,0.9-20.2v-58.5c0-10.7-0.2-15.4-0.7-21.7c5.7,0.7,11.1,0.9,20.7,0.9H342.3z
			 M326.6,359.2v12h25v-12H326.6z M326.6,398.5h25v-12.4h-25V398.5z M342.7,325.5c6.7,4.6,8.3,5.7,19.3,13.9
			c13.2-9.3,13.3-9.5,18.5-13.9H342.7z M369.9,371.3h27.8v-12h-27.8V371.3z M397.7,386.1h-27.8v12.4h27.8V386.1z"/>
	</g>
	<path display="inline" fill-rule="evenodd" clip-rule="evenodd" d="M172.9,46.3c0.3,0,0.5,0,0.6,0.1c4.4,6.5,28.3,42.7,32.6,49.4
		c0,0.7-0.2,2.5-1.6,5.1c-1.4,2.8-5.9,10.8-12.3,22l-5,8.7l5.8,8.2c4.3,6.1,14.5,19.4,34.7,39.6c20.3,20.3,33.5,30.5,39.6,34.8
		l8.2,5.8l8.7-5c8.4-4.8,18.6-10.6,21.9-12.4c2.7-1.4,4.5-1.5,5-1.5c0.1,0,0.1,0,0.2,0c6,3.8,42.9,28.3,49.4,32.8
		c0.1,0.6,0,2-1.2,3.7c-10,13.9-24.2,28.4-29.8,30.5c-29.6-1.4-71.2-27.5-117.2-73.6c-46-46.1-72-87.7-73.4-117.3
		c2-5.6,16.5-19.9,30.2-29.9C170.5,46.7,171.7,46.3,172.9,46.3 M172.9,30.9c-4.2,0-8.6,1.3-12.5,4c-0.4,0.3-37.5,26.8-37,42.1
		c1.4,43.1,43.2,93.9,78,128.8s85.4,76.9,128.6,78.3h0.4c15.1,0,41.7-36.8,42-37.1c7-10,4.4-21-1.9-25.5
		c-3.9-2.7-46.2-30.9-51.3-34.1c-2.3-1.4-5-2.1-8-2.1c-3.9,0-8.1,1.1-12.3,3.3c-4.1,2.1-16.4,9.2-22.4,12.6
		c-5.3-3.7-17.8-13.3-37.5-33.1c-19.5-19.6-29.2-32.2-32.9-37.6c3.4-6,10.4-18.4,12.6-22.5c4-7.7,4.5-15.3,1.2-20.5
		c-3.1-4.9-31.1-47-34-51C183.1,33,178.2,30.9,172.9,30.9L172.9,30.9z"/>
</g>
<g id="レイヤー_33" display="none">
	<path display="inline" fill-rule="evenodd" clip-rule="evenodd" d="M419.6,373.1h-46.5v74H126.9v-74H80.4
		c-15.1,0-27.4-12.3-27.4-27.5V178.5c0-15.2,12.3-27.5,27.4-27.5h46.5V53h246.3v98h46.5c15.1,0,27.4,12.3,27.4,27.5v167.1
		C447,360.8,434.7,373.1,419.6,373.1z M151.5,422.4h197V286.6h-197V422.4z M348.5,77.2h-197V151h197V77.2z M422.4,178.5
		c0-1.6-1.3-2.8-2.8-2.8H80.4c-1.5,0-2.8,1.3-2.8,2.8v167.1c0,1.6,1.3,2.8,2.8,2.8h46.5V262h246.3v86.4h46.5c1.6,0,2.8-1.3,2.8-2.8
		V178.5z M373.1,225.1h-12.3c-6.8,0-12.3-5.5-12.3-12.3c0-6.8,5.5-12.3,12.3-12.3h12.3c6.8,0,12.3,5.5,12.3,12.3
		C385.5,219.6,379.9,225.1,373.1,225.1z"/>
</g>
<g id="レイヤー_34" display="none">
	<path display="inline" fill-rule="evenodd" clip-rule="evenodd" d="M324.9,452.2H175.1c-20.7,0-37.4-17-37.4-37.9V85.7
		c0-20.9,16.8-37.9,37.4-37.9h149.9c20.7,0,37.4,17,37.4,37.9v328.5C362.4,435.2,345.6,452.2,324.9,452.2z M337.4,85.7
		c0-7-5.6-12.6-12.5-12.6H175.1c-6.9,0-12.5,5.7-12.5,12.6v328.5c0,7,5.6,12.6,12.5,12.6h149.9c6.9,0,12.5-5.7,12.5-12.6V85.7z
		 M275,111h-49.9c-6.9,0-12.5-5.7-12.5-12.6c0-7,5.6-12.6,12.5-12.6H275c6.9,0,12.5,5.7,12.5,12.6C287.5,105.4,281.9,111,275,111z
		 M250,363.8c13.8,0,24.9,11.3,24.9,25.2c0,13.9-11.1,25.2-24.9,25.2s-24.9-11.3-24.9-25.2C225.1,375.1,236.3,363.8,250,363.8z"/>
</g>
<g id="レイヤー_35" display="none">
	<path display="inline" fill-rule="evenodd" clip-rule="evenodd" d="M274.8,442.1c-0.2,0.2-8.8,10.1-19.6,10.1c0,0-0.9,0-0.9,0
		c-10.7,0-19.4-9.8-19.6-10.1C181,379.1,101,289.6,101,202c0-83.6,69-154.2,150.4-154.2C345.2,47.8,399,118.4,399,202
		C399,285.7,325.3,383,274.8,442.1z M251.4,73.1c-68.1,0-125.6,59-125.6,128.9c0,74.5,69.8,156,120.8,215.5l6.5,7.6
		c0.4,0.4,1.1,1,1.6,1.3c0.6-0.4,1.2-0.9,1.6-1.3c78.1-91.5,117.7-166.5,117.7-223.1C374.1,137.9,336.2,73.1,251.4,73.1z M250.4,276
		c-41.1,0-74.5-33.9-74.5-75.8c0-41.9,33.3-75.8,74.5-75.8c41.1,0,74.5,33.9,74.5,75.8C324.9,242,291.6,276,250.4,276z M249.9,149.1
		c-27.4,0-49.7,22.7-49.7,50.5c0,27.9,22.8,51.1,50.2,51.1c27.4,0,49.1-23.2,49.1-51.1C299.5,171.7,277.3,149.1,249.9,149.1z"/>
</g>
<g id="レイヤー_36" display="none">
	<g display="inline">
		<path d="M273.5,465.4h-47c-7.2,0-13-5.8-13-13V222.3H57.9c-7.2,0-13-5.8-13-13v-43.6c0-7.2,5.8-13,13-13h384.1c7.2,0,13,5.8,13,13
			v43.6c0,7.2-5.8,13-13,13H286.5v230.1C286.5,459.6,280.7,465.4,273.5,465.4z M239.5,439.4h21V209.3c0-7.2,5.8-13,13-13h155.6
			v-17.6H70.9v17.6h155.6c7.2,0,13,5.8,13,13V439.4z M442.1,103.6H57.9c-7.2,0-13-5.8-13-13v-43c0-7.2,5.8-13,13-13h384.1
			c7.2,0,13,5.8,13,13v43C455.1,97.8,449.3,103.6,442.1,103.6z M70.9,77.6h358.1v-17H70.9V77.6z"/>
	</g>
</g>
<g id="レイヤー_45" display="none">
	<path display="inline" fill-rule="evenodd" clip-rule="evenodd" d="M424.8,449.8H75.2c-13.8,0-25-11.2-25-25V112.6
		c0-13.8,11.2-25,25-25H175V62.7c0-6.9,5.6-12.5,12.5-12.5c6.9,0,12.5,5.6,12.5,12.5v24.9h99.9V62.7c0-6.9,5.6-12.5,12.5-12.5
		c6.9,0,12.5,5.6,12.5,12.5v24.9h100c13.8,0,25,11.2,25,25v312.2C449.8,438.6,438.6,449.8,424.8,449.8z M424.8,112.6h-100v12.6
		c0,6.9-5.6,12.5-12.5,12.5c-6.9,0-12.5-5.6-12.5-12.5v-12.6H200v12.6c0,6.9-5.6,12.5-12.5,12.5c-6.9,0-12.5-5.6-12.5-12.5v-12.6
		H75.2v312.2h349.7V112.6z M137.6,200h25c6.9,0,12.5,5.6,12.5,12.5v25c0,6.9-5.6,12.5-12.5,12.5h-25c-6.9,0-12.5-5.6-12.5-12.5v-25
		C125.1,205.6,130.7,200,137.6,200z M137.6,299.9h25c6.9,0,12.5,5.6,12.5,12.5v25c0,6.9-5.6,12.5-12.5,12.5h-25
		c-6.9,0-12.5-5.6-12.5-12.5v-25C125.1,305.5,130.7,299.9,137.6,299.9z M237.5,200h25c6.9,0,12.5,5.6,12.5,12.5v25
		c0,6.9-5.6,12.5-12.5,12.5h-25c-6.9,0-12.5-5.6-12.5-12.5v-25C225,205.6,230.6,200,237.5,200z M237.5,299.9h25
		c6.9,0,12.5,5.6,12.5,12.5v25c0,6.9-5.6,12.5-12.5,12.5h-25c-6.9,0-12.5-5.6-12.5-12.5v-25C225,305.5,230.6,299.9,237.5,299.9z
		 M337.4,200h25c6.9,0,12.5,5.6,12.5,12.5v25c0,6.9-5.6,12.5-12.5,12.5h-25c-6.9,0-12.5-5.6-12.5-12.5v-25
		C324.9,205.6,330.5,200,337.4,200z M337.4,299.9h25c6.9,0,12.5,5.6,12.5,12.5v25c0,6.9-5.6,12.5-12.5,12.5h-25
		c-6.9,0-12.5-5.6-12.5-12.5v-25C324.9,305.5,330.5,299.9,337.4,299.9z"/>
</g>
<g id="レイヤー_37" display="none">
	<path display="inline" fill-rule="evenodd" clip-rule="evenodd" d="M423.6,189.5L374,239.2c-15.6,15.6-36.1,23.5-56.6,23.5
		c-10.5,0-20.5-1.3-30.3-5.4l19.6-19.6c3.6,0.7,6.9,0.4,10.7,0.4c14.8,0,28.7-5.8,39.2-16.2l49.7-49.8c21.5-21.5,21.5-56.7-0.1-78.3
		c-10.5-10.5-24.4-16.2-39.2-16.2c-14.8,0-28.7,5.8-39.2,16.2l-49.7,48.2c-14.8,14.8-19.1,36.1-13.5,55L245.5,216
		c-14.5-29.9-9.5-66.8,15.3-91.6l49.6-48.1C326,60.6,346.5,52.8,367,52.8c20.5,0,41,7.8,56.6,23.5
		C454.9,107.6,454.9,158.3,423.6,189.5z M175.5,338.5c-3.1,0-6.3-1.2-8.7-3.6c-4.8-4.8-4.8-12.6,0-17.4L315.9,167
		c4.8-4.8,12.6-4.8,17.4,0c4.8,4.8,4.8,12.6,0,17.4L184.2,334.9C181.8,337.3,178.6,338.5,175.5,338.5z M181.5,261.6
		c-14.8,0-28.7,5.8-39.2,16.2L93.7,328c-21.5,21.5-21.5,56.7,0.1,78.3c10.5,10.5,24.4,16.2,39.2,16.2c14.8,0,28.7-5.8,39.2-16.2
		l49.7-48.2c13.9-13.9,18.3-31.5,14.2-49.4l19.5-19.5c12.7,29.3,7.5,62.6-16.4,86.5l-49.6,48.1c-15.6,15.6-36.1,23.4-56.6,23.4
		c-20.5,0-41-7.8-56.6-23.4c-31.3-31.3-31.3-82,0-113.3l48.5-50c15.6-15.6,36.1-23.5,56.6-23.5c11.6,0,23.2,2.6,33.9,7.6l-19.2,19.2
		C191.4,262.5,186.5,261.6,181.5,261.6z"/>
</g>
<g id="レイヤー_38" display="none">
	<path display="inline" fill-rule="evenodd" clip-rule="evenodd" d="M425.4,52.9H74.6c-12,0-21.7,9.7-21.7,21.7v350.7
		c0,12,9.7,21.7,21.7,21.7h191.1V293.4h-55.1v-55.2h55.1V189c0-50.9,30.8-80.9,76.2-80.9c21.8,0,40.6,2.3,46,3.1v56l-37.6,0
		c-24.7,0-29.3,12.3-29.3,29.5v41.5h63.3l-8.9,55.2H321v153.7h104.3c12,0,21.8-9.7,21.8-21.7V74.6C447.1,62.6,437.4,52.9,425.4,52.9
		z"/>
</g>
<g id="レイヤー_42" display="none">
	<g display="inline">
		<g>
			<path fill-rule="evenodd" clip-rule="evenodd" d="M446.9,166.5c-5.4-28.1-19-53.7-39.3-74.1c-20.3-20.3-45.9-33.9-74.1-39.3
				c-5.2-1-10.1,2.4-11.1,7.5c-1,5.2,2.4,10.1,7.6,11.1c24.4,4.7,46.5,16.4,64.2,34.1c17.6,17.6,29.4,39.8,34.1,64.2
				c1,5.2,6,8.5,11.1,7.6c1.9-0.4,3.6-1.3,4.9-2.6C446.4,172.8,447.5,169.7,446.9,166.5z M398,142c-4.7-8.3-10.5-15.9-17.3-22.7
				c-6.8-6.8-14.4-12.6-22.7-17.3c-8-4.5-16.6-8-25.6-10.2c-5.1-1.3-10.2,1.8-11.5,6.9c-1.3,5.1,1.8,10.3,6.9,11.5
				c7.3,1.9,14.4,4.7,20.9,8.4c6.8,3.8,13,8.6,18.6,14.1c5.6,5.6,10.3,11.8,14.1,18.6c3.7,6.6,6.5,13.6,8.4,20.9
				c1.3,5.1,6.5,8.2,11.5,6.9c1.7-0.4,3.2-1.3,4.4-2.5c2.3-2.3,3.3-5.7,2.5-9C406,158.6,402.5,150,398,142z M117.3,135.3
				c-39.9,0-64.3,30-64.3,30v272c0,5.4,4.4,9.7,9.8,9.7c5.4,0,9.8-4.4,9.8-9.7v-124c10.3-6.6,24.5-12.6,42.3-12.6
				c61.9,0,79.8,29.2,128.6,29.2c48.8,0,83-29.2,83-29.2V135.3c0,0-36.6,29.2-85.5,29.2C192.2,164.5,179.1,135.3,117.3,135.3z
				 M307,290.8c-11,7.2-34.4,19.6-63.5,19.6c-19.2,0-32.3-5.2-48.9-11.9c-20.2-8.1-43.2-17.3-79.7-17.3c-16.7,0-30.9,4.2-42.3,9.8
				V173.2c7.4-6.7,23.4-18.5,44.8-18.5c28.7,0,44.9,6.9,62,14.3C196.4,176.4,214,184,241,184c26,0,48.9-7.2,65.9-14.9V290.8z"/>
		</g>
	</g>
</g>
<g id="レイヤー_43" display="none">
	<path display="inline" d="M444.6,395.6L266.1,85.8c-3.3-5.8-9.4-9.3-16.1-9.3c-6.6,0-12.8,3.5-16.1,9.3L55.4,395.6
		c-3.3,5.8-3.3,12.8,0,18.6c3.3,5.8,9.4,9.3,16.1,9.3h357c6.6,0,12.8-3.5,16.1-9.3C447.9,408.4,447.9,401.3,444.6,395.6z
		 M263.2,362.4c-0.7,1.7-1.8,3.1-3,4.4c-1.3,1.2-2.8,2.2-4.6,3c-1.8,0.7-3.7,1.1-5.6,1.1c-2,0-3.9-0.4-5.6-1.1
		c-1.8-0.7-3.3-1.7-4.6-3c-1.3-1.2-2.3-2.7-3-4.4c-0.7-1.7-1.1-3.5-1.1-5.5c0-1.9,0.4-3.7,1.1-5.4c0.7-1.7,1.8-3.2,3-4.5
		c1.3-1.2,2.8-2.2,4.6-3c1.8-0.7,3.7-1.1,5.6-1.1c2,0,3.9,0.4,5.6,1.1c1.8,0.7,3.3,1.7,4.6,3c1.3,1.2,2.3,2.7,3,4.5
		c0.7,1.7,1.1,3.5,1.1,5.4C264.3,358.9,263.9,360.8,263.2,362.4z M263.9,234.1c-1.1,9.3-2.3,18.8-3.6,28.6
		c-1.3,9.8-2.6,19.6-3.9,29.6c-1.2,9.9-2.1,19.8-2.4,29.5h-8.2c-0.4-9.7-1.2-19.5-2.4-29.5c-1.2-10-2.4-19.8-3.8-29.6
		c-1.3-9.7-2.5-19.3-3.6-28.6c-1-9.3-1.6-18.1-1.6-26.4c0-3.3,0.4-6.2,1.3-8.8c0.9-2.6,2-4.8,3.5-6.5c1.4-1.8,3.1-3.1,4.9-4.1
		c1.8-0.9,3.7-1.4,5.7-1.4c4.4,0,8.2,1.8,11.1,5.5c3,3.7,4.4,8.8,4.4,15.3C265.5,216,264.9,224.8,263.9,234.1z"/>
</g>
<g id="レイヤー_46" display="none">
	<path display="inline" fill-rule="evenodd" clip-rule="evenodd" fill="#040000" d="M409.8,235.1c3-9.3,5.8-19.9,6.7-29.8
		c35.7,21.2,50.1,49.5,50.1,86.7c0,39.9-18.7,70.4-59.1,91.3c0,0.2,0.1,0.4,0.1,0.7c0,17.3,8.8,46,14.4,55.7h0
		c0.4,1.1,0.7,2.2,0.7,3.5c0,4.9-3.9,8.8-8.7,8.8c-0.7,0-1.9-0.1-2.3-0.1c-0.1,0-0.2,0-0.2,0c-29.8-4.9-66.5-40.3-73-48.4
		c-6.7,1-11.2,1.2-16.8,1.2c-2.4,0-4.9,0-7.9,0c-55.1,0-99-21-125.9-54.2C188.9,349.6,358,363.1,409.8,235.1z M213.2,321.6
		c-3.5,0-6.4,0-9.2,0c-6.5,0-11.7-0.2-19.5-1.3c-7.6,9.3-58.5,48.7-93,54.4c0,0,0,0-0.2,0c-0.5,0-1.8,0.2-2.6,0.2
		c-5.5,0-10-4.5-10-10.1c0-1.4,0.3-2.8,0.8-4h0c6.5-11.3,23-38.8,23-58.9c0-0.3,0.1-0.5,0.1-0.8c-46.7-24.2-69.1-73.4-69.1-119.6
		C33.5,107.3,112.6,48,210.2,48c97.6,0,175,59.2,175,133.4C386.4,265.2,310.8,321.6,213.2,321.6z"/>
</g>
<g id="レイヤー_47" display="none">
	<path display="inline" d="M250,141.7V55.1H33.5v389.7h433.1V141.7H250z M120.1,401.6H76.8v-43.3h43.3V401.6z M120.1,315H76.8v-43.3
		h43.3V315z M120.1,228.3H76.8V185h43.3V228.3z M120.1,141.7H76.8V98.4h43.3V141.7z M206.7,401.6h-43.3v-43.3h43.3V401.6z
		 M206.7,315h-43.3v-43.3h43.3V315z M206.7,228.3h-43.3V185h43.3V228.3z M206.7,141.7h-43.3V98.4h43.3V141.7z M423.2,401.6H250
		v-43.3h43.3V315H250v-43.3h43.3v-43.3H250V185h173.2V401.6z M379.9,228.3h-43.3v43.3h43.3V228.3z M379.9,315h-43.3v43.3h43.3V315z"
		/>
</g>
<g id="レイヤー_48" display="none">
	<path display="inline" d="M281,259.6c35.7-27.9,55.7-65.8,55.7-107.1c0-57.5-35.7-97.6-86.7-97.6s-86.7,40.2-86.7,97.6
		c0,41.3,20,79.2,55.7,107.1C148.3,299,76.5,340.5,76.5,428.9v16.3h347v-16.3C423.5,340.5,351.7,299,281,259.6z M195.8,152.5
		c0-39.6,21.3-65.1,54.2-65.1s54.2,25.6,54.2,65.1c0,34.8-19.8,66.8-54.2,89.1C215.5,219.2,195.8,187.3,195.8,152.5z M110.2,412.7
		c8.5-59.9,64.4-91.1,128.3-126.7c3.8-2.1,7.7-4.3,11.6-6.5c3.9,2.2,7.7,4.4,11.6,6.5c63.9,35.6,119.7,66.7,128.3,126.7H110.2z"/>
</g>
</svg>
